<svg height="511pt" viewBox="1 1 511 511.99993" width="511pt" xmlns="http://www.w3.org/2000/svg"><g fill-rule="evenodd"><path d="m114.109375 114.300781c18.644531-15.847656 39.964844-28.640625 63.1875-37.609375-22.230469-23.585937-59.957031-55.230468-80.820313-66.691406-.511718 24.046875 8.210938 73.300781 17.632813 104.300781zm0 0" fill="#f8f8f8"/><path d="m416.523438 10c-20.863282 11.464844-58.589844 43.109375-80.824219 66.691406 23.226562 8.96875 44.546875 21.761719 63.1875 37.609375 9.421875-31 18.148437-80.253906 17.636719-104.300781zm0 0" fill="#f8f8f8"/><path d="m398.886719 114.300781c-18.640625-15.847656-39.960938-28.640625-63.1875-37.609375-24.570313-9.488281-51.277344-14.6875-79.199219-14.6875s-54.628906 5.203125-79.203125 14.691406c-23.222656 8.964844-44.542969 21.757813-63.1875 37.605469-42.816406 36.394531-71.511719 88.898438-76.734375 148.144531-16.636719 2.371094-26.875 7.925782-26.875 18.523438 0 24.460938 13.519531 47.09375 35.898438 66.480469 27.863281 89.539062 111.390624 154.550781 210.101562 154.550781s182.238281-65.011719 210.097656-154.550781c22.382813-19.386719 35.902344-42.019531 35.902344-66.480469 0-10.597656-10.238281-16.152344-26.875-18.523438-5.222656-59.246093-33.921875-111.75-76.738281-148.144531zm-288.386719 206.367188c0-28.160157 97.332031-2.699219 146-2.699219s146-25.460938 146 2.699219c0 13.457031-5.511719 26.078125-14.957031 37.332031-25.390625 30.246094-79.230469 50.589844-131.042969 50.589844-51.816406 0-105.65625-20.34375-131.046875-50.589844-9.445313-11.253906-14.953125-23.875-14.953125-37.332031zm0 0" fill="#ff6977"/><path d="m402.5 320.667969c0-28.160157-97.332031-2.699219-146-2.699219s-146-25.460938-146 2.699219c0 13.457031 5.511719 26.078125 14.957031 37.332031h262.085938c9.449219-11.253906 14.957031-23.875 14.957031-37.332031zm0 0" fill="#f8f8f8"/><path d="m387.542969 358h-262.085938c25.390625 30.246094 79.226563 50.589844 131.042969 50.589844 51.8125 0 105.652344-20.34375 131.042969-50.589844zm0 0" fill="#f8f8f8"/></g><path d="m484.789062 253.980469c-6.582031-54.128907-32.167968-104.042969-72.578124-141.242188-.640626-.589843-1.296876-1.164062-1.945313-1.75 8.429687-30.144531 16.777344-76.535156 16.253906-101.199219-.074219-3.496093-1.96875-6.699218-4.996093-8.449218-3.027344-1.75-6.75-1.789063-9.816407-.105469-21.542969 11.835937-56.566406 41.347656-78.691406 63.835937-24.332031-8.578124-50.15625-13.066406-76.515625-13.066406-26.300781 0-52.132812 4.535156-76.460938 13.125-22.117187-22.496094-57.183593-52.046875-78.75-63.894531-3.0625-1.683594-6.785156-1.644531-9.8125.105469-3.027343 1.75-4.925781 4.953125-5 8.445312-.523437 24.664063 7.828126 71.066406 16.261719 101.214844-6.179687 5.550781-12.082031 11.453125-17.671875 17.703125-3.683594 4.113281-3.332031 10.4375.785156 14.117187 4.117188 3.683594 10.4375 3.332032 14.121094-.785156 39.8125-44.507812 96.863282-70.035156 156.527344-70.035156 107.832031 0 199.710938 84.039062 209.160156 191.320312.410156 4.628907 3.949219 8.363282 8.550782 9.019532 5.5.785156 18.289062 3.195312 18.289062 8.628906 0 25.46875-17.644531 46.097656-32.449219 58.917969-1.40625 1.21875-2.445312 2.808593-3 4.585937-27.457031 88.242188-108.054687 147.527344-200.550781 147.527344-92.5 0-173.09375-59.285156-200.550781-147.523438-.554688-1.777343-1.59375-3.367187-3-4.585937-14.804688-12.824219-32.449219-33.449219-32.449219-58.921875 0-5.429688 12.789062-7.839844 18.289062-8.625 4.597657-.65625 8.140626-4.394531 8.546876-9.023438 1.40625-15.933593 4.648437-31.714843 9.640624-46.914062 1.722657-5.246094-1.132812-10.898438-6.378906-12.621094-5.25-1.722656-10.898437 1.132813-12.621094 6.382813-4.675781 14.234375-7.953124 28.9375-9.765624 43.8125-22.675782 5.300781-27.710938 17.34375-27.710938 26.988281 0 25.402344 12.855469 50.300781 37.210938 72.148438 14.554687 44.753906 43.300781 84.867187 81.183593 113.191406 39.972657 29.890625 87.554688 45.691406 137.605469 45.691406 50.046875 0 97.632812-15.800781 137.605469-45.691406 37.882812-28.324219 66.628906-68.4375 81.183593-113.191406 24.355469-21.847657 37.210938-46.746094 37.210938-72.148438 0-9.644531-5.035156-21.6875-27.710938-26.988281zm-377.34375-225.003907c16.078126 11.511719 36.1875 28.453126 52.484376 44.347657-14.132813 6.542969-27.613282 14.515625-40.203126 23.824219-5.613281-22.023438-10.316406-48.316407-12.28125-68.171876zm298.109376 0c-1.964844 19.839844-6.660157 46.113282-12.269532 68.128907-12.605468-9.34375-26.054687-17.320313-40.148437-23.851563 16.289062-15.871094 36.363281-32.785156 52.417969-44.277344zm0 0"/><path d="m100.5 320.667969c0 57.707031 82.214844 97.921875 156 97.921875s156-40.214844 156-97.921875c0-5.902344-2.328125-11.074219-6.726562-14.953125-13.632813-12.015625-44.582032-9.097656-93.933594-2.859375-19.898438 2.515625-40.46875 5.113281-55.339844 5.113281s-35.445312-2.597656-55.339844-5.113281c-49.355468-6.234375-80.304687-9.15625-93.9375 2.859375-4.398437 3.878906-6.722656 9.050781-6.722656 14.953125zm156 77.921875c-33.449219 0-67.964844-8.761719-94.699219-24.035156-3.121093-1.785157-6.671875-3.980469-10.34375-6.554688h210.085938c-3.675781 2.574219-7.226563 4.769531-10.34375 6.554688-26.734375 15.273437-61.25 24.035156-94.699219 24.035156zm-111.300781-81.117188c15.304687.40625 34.699219 2.855469 53.453125 5.226563 21.453125 2.710937 41.71875 5.269531 57.847656 5.269531s36.394531-2.558594 57.847656-5.269531c18.753906-2.371094 38.148438-4.820313 53.457032-5.226563 19.351562-.511718 23.910156 2.511719 24.695312 3.195313 0 10.332031-3.984375 19.484375-9.753906 27.332031h-252.492188c-5.769531-7.847656-9.753906-17-9.753906-27.332031.789062-.6875 5.34375-3.707031 24.699219-3.195313zm0 0"/><path d="m302.015625 280.9375c11.03125 0 20-8.972656 20-20v-12.863281c18.667969-5.464844 35.863281-13.296875 50.757813-23.269531 4.589843-3.070313 5.816406-9.285157 2.742187-13.871094-3.070313-4.589844-9.28125-5.816406-13.871094-2.746094-27.539062 18.441406-65.863281 29.019531-105.144531 29.019531-39.285156 0-77.605469-10.578125-105.144531-29.019531-4.589844-3.074219-10.800781-1.847656-13.875 2.746094-3.070313 4.585937-1.84375 10.796875 2.746093 13.871094 14.894532 9.976562 32.089844 17.804687 50.753907 23.269531v12.863281c0 11.027344 8.972656 20 20 20 11.027343 0 20-8.972656 20-20v-5.0625c8.375.878906 16.894531 1.332031 25.519531 1.332031 8.621094 0 17.144531-.453125 25.515625-1.332031v5.0625c0 11.027344 8.972656 20 20 20zm0 0"/><path d="m61.011719 180.691406c1.5625.894532 3.269531 1.320313 4.949219 1.320313 3.472656 0 6.847656-1.8125 8.691406-5.042969l.003906-.003906c2.742188-4.796875 1.074219-10.902344-3.722656-13.640625-4.792969-2.742188-10.90625-1.074219-13.644532 3.722656-2.742187 4.796875-1.074218 10.902344 3.722657 13.644531zm0 0"/></svg>