<svg id="Capa_1" enable-background="new 0 0 511.636 511.636" height="512" viewBox="0 0 511.636 511.636" width="512" xmlns="http://www.w3.org/2000/svg"><g><g><path d="m496.475 219.5c-7.19-14.106-21.957-21.29-37.364-21.643-1.648-.038-3.325-.044-4.967.147 1.44-.81 2.793-1.801 4.104-2.8 12.257-9.341 19.981-23.833 17.507-39.471-4.208-26.584-30.707-46.22-57.167-36.479-50.036 16.809-93.696 48.641-124.99 91.198l-.475.646.468-.652c30.804-42.914 47.586-94.275 48.11-147.056.195-5.055-.463-10.149-2.096-14.944-7.079-20.781-29.172-31.495-50.263-28.152-15.638 2.479-27.033 14.304-32.129 28.847-.545 1.556-1.07 3.149-1.395 4.769-.325-1.62-.85-3.213-1.395-4.769-5.096-14.543-16.492-26.368-32.129-28.847-26.583-4.213-53.447 14.922-52.359 43.097.525 52.781 17.306 104.141 48.11 147.055l.008.01-.015-.005c-31.295-42.558-74.956-74.389-124.992-91.198-26.475-9.744-52.959 9.896-57.166 36.479-2.475 15.639 5.25 30.13 17.507 39.471 1.311.999 2.664 1.99 4.104 2.8-1.641-.191-3.318-.184-4.966-.147-15.406.353-30.174 7.536-37.364 21.643-12.222 23.98-2.313 55.445 24.808 63.114 50.36 15.811 104.392 15.722 154.724-.313l.764-.243-.761.252c-50.146 16.612-93.911 48.299-125.359 90.692-17.419 22.139-6.963 53.42 17.028 65.641 14.108 7.186 30.278 4.318 42.949-4.453 1.356-.938 2.716-1.919 3.932-3.038-.689 1.502-1.201 3.099-1.674 4.678-4.425 14.761-2.157 31.026 9.037 42.223 19.032 19.036 52.013 19.338 67.691-4.09 30.6-43.009 47.211-94.424 47.515-147.248v-.013l.009.013c.303 52.825 16.915 104.24 47.515 147.249 15.668 23.411 48.656 23.127 67.69 4.089 11.194-11.197 13.463-27.461 9.037-42.223-.473-1.579-.986-3.176-1.674-4.678 1.215 1.119 2.576 2.099 3.932 3.038 12.671 8.77 28.841 11.639 42.949 4.453 23.985-12.218 34.465-43.492 17.027-65.642-31.448-42.392-75.213-74.079-125.358-90.691l-.012-.004.015-.005c50.333 16.035 104.365 16.125 154.725.313 27.119-7.668 37.028-39.13 24.805-63.113z" fill="#ffc145"/></g><g><path d="m209.448 237.719-5.616 17.797c-5.012 15.881.612 33.191 13.999 43.095l14.999 11.096c13.686 10.124 32.356 10.203 46.127.195l15.054-10.94c13.666-9.932 19.385-27.532 14.166-43.599l-5.831-17.954c-5.221-16.075-20.201-26.959-37.102-26.956l-18.605.003c-17.018-.001-32.069 11.034-37.191 27.263z" fill="#868eaf"/></g><g><path d="m505.383 214.959c-5.916-11.609-16.191-20.065-28.874-24.222 7.817-10.817 11.16-23.697 9.123-36.568-5.175-32.695-37.995-56.169-70.358-44.351-29.296 9.858-56.271 24.487-80.07 43.264 5.589-15.136 9.816-30.774 12.57-46.64.944-5.441-2.701-10.618-8.143-11.563-5.443-.947-10.618 2.701-11.563 8.143-6.326 36.447-21.058 71.577-42.601 101.591l-.1.139c-6.184-2.777-13.007-4.302-20.121-4.302-.001 0-.004 0-.006 0l-18.604.003c-7.198.001-14.089 1.554-20.318 4.38-.005-.007-.008-.014-.013-.021-.045-.066-.091-.132-.139-.197-29.739-41.431-45.727-90.3-46.234-141.323-.225-22.031 19.611-36.486 40.794-33.12 10.907 1.729 19.975 10.057 24.257 22.275.478 1.363.835 2.469 1.028 3.431.986 4.915 5.616 8.361 10.585 7.971 6.811-.535 8.164-6.018 10.053-11.401 4.282-12.22 13.35-20.548 24.257-22.276 7.436-1.182 15.248-.139 21.985 2.931 5.028 2.288 10.957.071 13.246-4.955s.07-10.957-4.955-13.246c-10.27-4.678-22.136-6.269-33.407-4.483-12.87 2.04-24.088 9.199-31.959 19.977-7.872-10.778-19.089-17.937-31.959-19.977-32.698-5.179-65.159 18.786-63.922 53.209.321 30.841 5.874 60.944 16.333 89.328-23.763-18.718-50.683-33.304-79.915-43.14-32.359-11.799-65.177 11.655-70.352 44.354-2.037 12.871 1.305 25.751 9.123 36.567-12.683 4.156-22.958 12.612-28.875 24.222-15.034 29.5-2.244 67.783 30.854 77.236 29.431 9.224 59.777 13.242 90 12.07-25.142 16.813-47.333 37.91-65.719 62.669-21.224 27.11-9.06 65.592 20.439 80.618 11.611 5.914 24.893 6.716 37.597 2.624.034 13.347 4.901 25.731 14.114 34.946 23.401 23.407 63.786 23.057 82.991-5.477 17.865-25.138 31.069-52.758 39.291-81.865 8.222 29.11 21.428 56.733 39.296 81.873 19.237 28.512 59.558 28.904 82.986 5.469 9.212-9.215 14.08-21.6 14.113-34.946 12.704 4.092 25.985 3.291 37.598-2.624 29.507-15.03 41.654-53.516 20.438-80.622-18.388-24.758-40.575-45.852-65.717-62.665 30.224 1.172 60.573-2.848 90.004-12.071 33.097-9.465 45.889-47.73 30.849-77.235zm-258.743 5.494 18.605-.003h.004c12.606 0 23.692 8.056 27.587 20.045l5.831 17.955c3.892 11.984-.342 25.013-10.535 32.421l-15.054 10.94c-10.291 7.479-24.076 7.419-34.301-.145l-14.999-11.096c-9.952-7.363-14.136-20.241-10.411-32.047l5.617-17.796c3.827-12.124 14.941-20.272 27.656-20.274zm-203.677 52.62c-21.052-6.529-28.611-29.965-18.894-49.031 5.015-9.839 15.737-15.89 28.685-16.187 1.247-.028 2.542-.038 3.577.082 10.551 1.227 15.335-13.429 6.064-18.646-.917-.517-1.957-1.284-2.948-2.04-10.299-7.85-15.417-19.047-13.691-29.954 3.36-21.225 23.192-35.534 44.104-28.563 48.369 16.249 89.906 46.556 120.12 87.643.07.095.155.175.228.267-4.573 5.092-8.129 11.199-10.296 18.067l-5.617 17.796c-2.09 6.622-2.698 13.442-1.975 20.056l-.665.211c-48.594 15.479-100.011 15.583-148.692.299zm202.849 53.584c-.292 50.999-16.083 99.933-45.663 141.51-12.728 17.956-37.321 17.972-52.471 2.816-7.808-7.81-10.249-19.877-6.531-32.279.415-1.383.775-2.487 1.185-3.382 4.428-9.651-8.043-18.724-15.863-11.525-.77.709-1.822 1.461-2.849 2.171-10.647 7.37-22.879 8.777-32.718 3.766-19.065-9.711-26.726-33.111-13.537-50.772 30.4-40.98 72.059-71.119 120.47-87.157l.664-.22c3.302 5.776 7.802 10.937 13.384 15.066l14.999 11.096c5.788 4.282 12.25 7.132 18.938 8.565 0 0-.001.013-.001.019-.004.108-.006.217-.007.326zm188.455 52.301c13.15 17.685 5.562 41.046-13.535 50.774-9.839 5.011-22.072 3.605-32.722-3.768-1.025-.709-2.079-1.462-2.845-2.167-7.809-7.197-20.294 1.859-15.866 11.521.438.954.829 2.189 1.187 3.382 3.719 12.404 1.277 24.472-6.531 32.281-15.156 15.16-39.711 15.142-52.47-2.815-29.58-41.576-45.37-90.51-45.663-141.511 0-.086-.009-.171-.012-.256 6.706-1.376 13.198-4.175 19.025-8.411l15.054-10.939c5.754-4.181 10.377-9.427 13.746-15.309.06.021.117.046.178.066 48.404 16.041 90.057 46.177 120.454 87.152zm44.974-110.962c-3.218 2.409-6.767 3.878-10.567 5.076-48.686 15.285-100.104 15.182-148.695-.3-.055-.018-.111-.03-.167-.046.729-6.736.072-13.693-2.124-20.454l-5.831-17.955c-2.197-6.764-5.754-12.781-10.303-17.804l.101-.137c30.212-41.087 71.748-71.393 120.118-87.643 20.897-6.966 40.746 7.335 44.105 28.562 1.726 10.908-3.393 22.105-13.693 29.956-1.146.874-2.084 1.554-2.94 2.035-9.258 5.205-4.504 19.88 6.058 18.65.978-.114 2.138-.117 3.58-.082 12.945.297 23.668 6.348 28.683 16.187 8.064 15.824 4.563 34.309-8.325 43.955z"/><path d="m332.347 61.893c2.067 5.037 8.039 7.494 13.06 5.41 5.035-2.09 7.497-8.02 5.41-13.061-2.084-5.033-8.029-7.494-13.061-5.41-5.024 2.081-7.501 8.035-5.409 13.061z"/></g></g></svg>