<?xml version="1.0" encoding="iso-8859-1"?>
<!-- Generator: Adobe Illustrator 19.0.0, SVG Export Plug-In . SVG Version: 6.00 Build 0)  -->
<svg version="1.1" id="Capa_1" xmlns="http://www.w3.org/2000/svg" xmlns:xlink="http://www.w3.org/1999/xlink" x="0px" y="0px"
	 viewBox="0 0 511.999 511.999" style="enable-background:new 0 0 511.999 511.999;" xml:space="preserve">
<g>
	<polygon style="fill:#FC4F5C;" points="52.783,234.058 256.001,105.702 459.218,234.058 478.107,245.988 502,208.156 
		256.001,52.784 10.002,208.156 33.895,245.988 	"/>
	<path style="fill:#FCC8A4;" d="M256.001,105.702L52.783,234.058v225.157h39.999h163.219h203.217V234.058L256.001,105.702
		L256.001,105.702z M189.556,247.164c18.347-18.346,48.094-18.346,66.444,0c18.348-18.346,48.096-18.346,66.443,0
		c18.352,18.348,18.352,48.096,0,66.447L256,380.053l-66.444-66.443C171.207,295.259,171.207,265.511,189.556,247.164z"/>
	<path style="fill:#FFA14D;" d="M256.001,247.164c-18.351-18.346-48.098-18.346-66.444,0c-18.35,18.348-18.35,48.096,0,66.447
		l66.444,66.443l66.443-66.443c18.352-18.352,18.352-48.1,0-66.447C304.096,228.818,274.348,228.818,256.001,247.164z"/>
</g>
<g>
	<path style="fill:#000001;" d="M507.339,199.701l-246-155.372c-3.262-2.061-7.418-2.061-10.68,0L4.661,199.701
		c-4.67,2.949-6.064,9.125-3.115,13.795l23.894,37.832c1.416,2.242,3.665,3.83,6.253,4.414c2.586,0.588,5.301,0.119,7.542-1.299
		l3.548-2.24v207.013c0,5.523,4.478,10,10,10h406.435c5.522,0,10-4.477,10-10V252.203l3.549,2.24
		c1.657,1.047,3.505,1.547,5.33,1.547c3.317,0,6.563-1.65,8.465-4.662l23.893-37.828c1.009-1.598,1.545-3.453,1.545-5.344
		C512,204.724,510.241,201.533,507.339,199.701z M449.218,449.215H102.782v-41.037c0-5.522-4.478-10-10-10c-5.522,0-10,4.478-10,10
		v41.037H62.783V239.57l193.218-122.04l153.216,96.774v47.961c0,5.521,4.478,10,10,10s10-4.479,10-10v-35.328l20.002,12.633v209.645
		H449.218z M474.993,232.193L261.34,97.247c-3.262-2.061-7.418-2.061-10.68,0L47.443,225.603c0,0-0.003,0.002-0.004,0.004
		l-10.429,6.586l-13.214-20.922L256,64.612l232.207,146.659L474.993,232.193z"/>
	<path style="fill:#000001;" d="M289.222,223.404c-12.089,0-23.604,3.738-33.222,10.67c-9.619-6.932-21.134-10.67-33.223-10.67
		c-15.22,0-29.529,5.928-40.292,16.689c-10.764,10.762-16.691,25.072-16.691,40.293s5.927,29.531,16.691,40.297l66.444,66.443
		c1.953,1.951,4.512,2.928,7.071,2.928c2.559,0,5.118-0.977,7.071-2.928l66.444-66.445c22.214-22.221,22.214-58.371-0.001-80.588
		C318.752,229.332,304.443,223.404,289.222,223.404z M315.373,306.541l-59.372,59.373l-59.373-59.373
		c-6.986-6.986-10.833-16.275-10.833-26.154s3.847-19.166,10.832-26.15c6.986-6.984,16.273-10.832,26.151-10.832
		c9.879,0,19.166,3.848,26.152,10.832c3.904,3.904,10.235,3.904,14.142,0c6.984-6.984,16.272-10.832,26.15-10.832
		c9.879,0,19.166,3.848,26.15,10.832C329.79,268.654,329.79,292.119,315.373,306.541z"/>
	<path style="fill:#000001;" d="M92.784,369.215c-5.522,0-10,4.478-10,10v0.236c0,5.523,4.478,10,10,10c5.523,0,10-4.477,10-10
		v-0.236C102.784,373.694,98.306,369.215,92.784,369.215z"/>
	<path style="fill:#000001;" d="M419.224,280.996c-5.522,0-10,4.478-10,10v0.236c0,5.523,4.478,10,10,10s10-4.477,10-10v-0.236
		C429.224,285.474,424.747,280.996,419.224,280.996z"/>
</g>
<g>
</g>
<g>
</g>
<g>
</g>
<g>
</g>
<g>
</g>
<g>
</g>
<g>
</g>
<g>
</g>
<g>
</g>
<g>
</g>
<g>
</g>
<g>
</g>
<g>
</g>
<g>
</g>
<g>
</g>
</svg>
