<svg height="512pt" viewBox="0 -37 512.00061 512" width="512pt" xmlns="http://www.w3.org/2000/svg"><path d="m60.636719 428.136719h390.730469v-216.847657l-195.367188-143.738281-195.363281 143.738281zm0 0" fill="#ffecd1" fill-rule="evenodd"/><path d="m60.636719 211.289062 195.363281-143.738281 195.367188 143.738281 23.230468 17.09375 27.402344-37.386718-246-180.996094-246 180.996094 27.40625 37.386718zm0 0" fill="#858fa6" fill-rule="evenodd"/><path d="m507.925781 182.941406-246-180.996094c-3.523437-2.59375-8.328125-2.59375-11.851562 0l-90.785157 66.796876c-4.449218 3.273437-5.402343 9.53125-2.128906 13.980468 3.273438 4.449219 9.535156 5.402344 13.980469 2.128906l84.859375-62.4375 232.03125 170.722657-15.578125 21.253906-210.527344-154.894531c-3.523437-2.597656-8.328125-2.59375-11.851562 0l-210.527344 154.894531-15.578125-21.253906 82.734375-60.875c4.449219-3.273438 5.402344-9.53125 2.128906-13.980469-3.269531-4.449219-9.53125-5.402344-13.980469-2.128906l-90.777343 66.789062c-4.441407 3.269532-5.398438 9.519532-2.140625 13.96875l27.40625 37.382813c1.570312 2.140625 3.925781 3.574219 6.550781 3.972656.503906.078125 1.011719.117187 1.515625.117187 2.117188 0 4.195312-.675781 5.925781-1.945312l7.304688-5.375v197.074219c0 5.523437 4.476562 10 10 10h390.726562c5.523438 0 10-4.476563 10-10v-197.074219l7.308594 5.375c2.136719 1.574219 4.816406 2.230469 7.4375 1.828125 2.625-.398437 4.980469-1.832031 6.550781-3.972656l27.402344-37.382813c3.265625-4.449218 2.308594-10.699218-2.136719-13.96875zm-66.558593 235.195313h-370.730469v-201.789063l185.363281-136.382812 185.367188 136.382812zm0 0"/><path d="m133.003906 110.503906c1.960938 0 3.945313-.578125 5.683594-1.777344l.003906-.003906c4.542969-3.144531 5.671875-9.371094 2.527344-13.914062-3.144531-4.539063-9.375-5.671875-13.917969-2.527344-4.539062 3.144531-5.671875 9.375-2.527343 13.914062 1.941406 2.804688 5.058593 4.308594 8.230468 4.308594zm0 0"/><path d="m311.371094 378.136719h-.007813c-5.519531 0-9.996093 4.476562-9.996093 10 0 5.519531 4.480468 10 10.003906 10 5.523437 0 10-4.480469 10-10 0-5.523438-4.476563-10-10-10zm0 0"/><path d="m351.367188 398.136719h59.996093c5.523438 0 10-4.480469 10-10 0-5.523438-4.476562-10-10-10h-59.996093c-5.519532 0-10 4.476562-10 10 0 5.519531 4.476562 10 10 10zm0 0"/><path d="m242.964844 236.191406c0-16.539062-13.457032-30-30-30-16.542969 0-30 13.460938-30 30 0 16.542969 13.457031 30 30 30 16.542968 0 30-13.457031 30-30zm-40 0c0-5.511718 4.484375-10 10-10s10 4.488282 10 10c0 5.515625-4.484375 10-10 10s-10-4.484375-10-10zm0 0"/><path d="m216.082031 348.855469c1.574219.910156 3.292969 1.34375 4.988281 1.34375 3.457032 0 6.816407-1.796875 8.671876-5.003907l69.839843-120.964843c2.761719-4.785157 1.121094-10.898438-3.660156-13.660157-4.785156-2.765624-10.902344-1.125-13.660156 3.660157l-69.839844 120.964843c-2.761719 4.78125-1.125 10.898438 3.660156 13.660157zm0 0"/><path d="m269.039062 323.230469c0 16.542969 13.457032 30 30 30 16.539063 0 30-13.457031 30-30 0-16.539063-13.460937-30-30-30-16.542968 0-30 13.460937-30 30zm40 0c0 5.515625-4.488281 10-10 10-5.515624 0-10-4.484375-10-10 0-5.511719 4.484376-10 10-10 5.511719 0 10 4.488281 10 10zm0 0"/></svg>