<svg height="512pt" viewBox="0 0 512 512.0005" width="512pt" xmlns="http://www.w3.org/2000/svg"><g fill-rule="evenodd"><path d="m433.59375 165.832031-211.796875-155.832031-211.796875 155.832031 23.59375 32.1875 20-14.714843 168.203125-123.757813 168.203125 123.757813 20 14.714843zm0 0" fill="#858fa6"/><path d="m390 183.304688-168.203125-123.757813-168.203125 123.757813v186.695312h110.222656v-150c0-5.5 4.5-10 10-10h95.960938c5.5 0 10 4.5 10 10v150c9.429687-52.316406 55.191406-92.003906 110.222656-92.003906zm0 0" fill="#ffecd1"/><path d="m279.777344 220c0-5.5-4.5-10-10-10h-95.960938c-5.5 0-10 4.5-10 10v150h115.960938zm0 0" fill="#c58965"/><path d="m390 277.996094c-55.03125 0-100.792969 39.6875-110.222656 92.003906-1.167969 6.488281-1.78125 13.171875-1.78125 19.996094 0 61.859375 50.144531 112.003906 112.003906 112.003906 61.855469 0 112.003906-50.144531 112.003906-112.003906-.003906-61.855469-50.148437-112-112.003906-112zm0 0" fill="#cbe557"/><path d="m363.5 446.996094v-57h-26.5l53-56.996094 52.996094 56.996094h-26.5v57zm26.5 0" fill="#f9f9f9"/></g><path d="m400 268.410156v-65.335937l4.074219 3c1.726562 1.269531 3.804687 1.945312 5.925781 1.945312.503906 0 1.007812-.039062 1.511719-.117187 2.625-.402344 4.984375-1.828125 6.550781-3.972656l23.59375-32.1875c3.261719-4.449219 2.304688-10.699219-2.136719-13.964844l-211.796875-155.832032c-3.523437-2.59375-8.324218-2.59375-11.851562 0l-73.683594 54.214844c-4.449219 3.269532-5.398438 9.53125-2.128906 13.980469 3.277344 4.445313 9.535156 5.402344 13.984375 2.125l67.753906-49.851563 197.828125 145.554688-11.769531 16.058594-180.132813-132.535156c-3.523437-2.59375-8.324218-2.59375-11.851562 0l-180.132813 132.535156-11.769531-16.058594 65.632812-48.289062c4.449219-3.273438 5.402344-9.535157 2.128907-13.984376-3.273438-4.445312-9.53125-5.398437-13.980469-2.125l-73.675781 54.207032c-4.441407 3.269531-5.398438 9.515625-2.136719 13.964844l23.59375 32.1875c1.566406 2.144531 3.925781 3.570312 6.550781 3.972656s5.300781-.253906 7.441407-1.828125l4.074218-3v166.925781c0 5.523438 4.476563 10 10 10h214.816406c-.273437 3.316406-.417968 6.652344-.417968 9.996094 0 67.273437 54.730468 122.003906 122.003906 122.003906 67.269531 0 122-54.730469 122-122.003906 0-63.902344-49.390625-116.484375-112-121.585938zm-226.183594 91.589844v-140h95.960938v140zm216.183594 132c-56.246094 0-102.003906-45.757812-102.003906-102.003906 0-23.359375 8.101562-46.1875 22.8125-64.285156 3.484375-4.285157 2.835937-10.582032-1.449219-14.066407s-10.582031-2.832031-14.066406 1.453125c-1.9375 2.378906-3.773438 4.835938-5.515625 7.347656v-100.445312c0-11.027344-8.972656-20-20-20h-95.957032c-11.027343 0-20 8.972656-20 20v140h-90.226562v-171.640625l158.203125-116.398437 158.203125 116.398437v80.054687c-3.097656.25-6.1875.613282-9.242188 1.097657-5.457031.867187-9.175781 5.988281-8.3125 11.445312.863282 5.453125 5.992188 9.171875 11.441407 8.308594 5.3125-.839844 10.734375-1.269531 16.113281-1.269531 56.242188 0 102 45.757812 102 102 0 56.246094-45.757812 102.003906-102 102.003906zm0 0"/><path d="m249.777344 280h-.007813c-5.523437 0-9.996093 4.476562-9.996093 10s4.480468 10 10.003906 10c5.519531 0 10-4.476562 10-10s-4.480469-10-10-10zm0 0"/><path d="m115.902344 97.921875c2.085937 0 4.191406-.652344 5.992187-2l.003907-.003906c4.417968-3.316407 5.3125-9.582031 1.996093-14-3.3125-4.417969-9.582031-5.308594-14-1.996094s-5.3125 9.582031-2 14c1.964844 2.617187 4.964844 4 8.007813 4zm0 0"/><path d="m338.738281 301.804688c4.863281-2.617188 6.683594-8.679688 4.0625-13.542969-2.617187-4.863281-8.679687-6.679688-13.542969-4.0625h-.007812c-4.863281 2.621093-6.675781 8.683593-4.058594 13.546875 1.804688 3.351562 5.253906 5.257812 8.8125 5.257812 1.601563 0 3.226563-.386718 4.734375-1.199218zm0 0"/><path d="m397.320312 326.1875c-1.890624-2.035156-4.542968-3.1875-7.320312-3.1875-2.78125 0-5.433594 1.15625-7.324219 3.1875l-53 57c-2.710937 2.914062-3.433593 7.15625-1.84375 10.804688 1.585938 3.648437 5.1875 6.007812 9.167969 6.007812h16.5v47c0 5.523438 4.476562 10 10 10h52.996094c5.523437 0 10-4.476562 10-10v-47h16.503906c3.976562 0 7.578125-2.359375 9.167969-6.007812 1.589843-3.644532.863281-7.890626-1.847657-10.804688zm19.179688 53.808594c-5.523438 0-10 4.480468-10 10v47h-33v-47c0-5.519532-4.476562-10-10-10h-3.546875l30.046875-32.3125 30.046875 32.3125zm0 0"/></svg>