<svg height="511pt" viewBox="0 0 511.99965 511" width="511pt" xmlns="http://www.w3.org/2000/svg"><path d="m256 72.269531 180.054688 184.117188-.058594.0625v206.042969h-359.996094v-206.042969l-.058594-.0625zm0 0" fill="#e0f4ff"/><path d="m238.117188 17.722656c9.410156-9.632812 26.351562-9.632812 35.761718 0l220.996094 227.304688c9.648438 9.871094 9.460938 25.699218-.410156 35.347656-9.867188 9.644531-25.699219 9.480469-35.351563-.40625-13.371093-13.679688-197.425781-201.882812-203.113281-207.699219-7.449219 7.617188-193.175781 197.53125-203.117188 207.699219-9.660156 9.878906-25.480468 10.066406-35.351562.40625-9.867188-9.648438-10.058594-25.476562-.410156-35.347656 174.390625-179.363282 212.175781-218.230469 220.996094-227.304688zm0 0" fill="#ff641a"/><path d="m455.996094 462.492188c11.050781 0 20 8.953124 20 20 0 11.039062-8.960938 20-20 20h-399.992188c-11.050781 0-20-8.949219-20-20 0-11.039063 8.957032-20 20-20zm0 0" fill="#7c8388"/><path d="m315.277344 259.175781 20 34.640625-20.378906 11.769532c.648437 3.550781 1.097656 7.171874 1.097656 10.910156 0 3.738281-.449219 7.359375-1.097656 10.910156l20.378906 11.769531-20 34.640625-20.558594-11.871094c-5.5 4.691407-11.78125 8.390626-18.71875 10.859376v23.691406h-40v-23.691406c-6.941406-2.46875-13.222656-6.167969-18.71875-10.859376l-20.5625 11.871094-20-34.640625 20.382812-11.769531c-.652343-3.550781-1.101562-7.171875-1.101562-10.910156 0-3.738282.449219-7.359375 1.101562-10.910156l-20.382812-11.769532 20-34.640625 20.5625 11.871094c5.496094-4.691406 11.777344-8.390625 18.71875-10.859375v-23.691406h40v23.691406c6.9375 2.46875 13.21875 6.167969 18.71875 10.859375zm-39.277344 57.320313c0-11.050782-8.953125-20-20-20-11.050781 0-20 8.949218-20 20 0 11.050781 8.949219 20 20 20 11.046875 0 20-8.949219 20-20zm0 0" fill="#64e1dc"/><path d="m136 50.5v72.257812l-60 61.710938v-133.96875zm0 0" fill="#7c8388"/><path d="m168.058594 344.175781 20 34.640625c2.761718 4.78125 8.875 6.417969 13.660156 3.660156l14.777344-8.53125c3.03125 2.097657 6.203125 3.9375 9.503906 5.519532v17.03125c0 5.523437 4.476562 10 10 10h40c5.519531 0 10-4.476563 10-10v-17.03125c3.296875-1.582032 6.472656-3.421875 9.5-5.519532l14.777344 8.53125c4.785156 2.761719 10.898437 1.125 13.660156-3.660156l20-34.640625c2.761719-4.78125 1.121094-10.898437-3.660156-13.660156l-14.546875-8.398437c.179687-1.929688.265625-3.785157.265625-5.621094 0-1.835938-.085938-3.691406-.265625-5.621094l14.546875-8.398438c4.78125-2.761718 6.421875-8.878906 3.660156-13.660156l-20-34.640625c-2.761719-4.785156-8.875-6.421875-13.660156-3.660156l-14.777344 8.53125c-3.027344-2.09375-6.203125-3.9375-9.5-5.519531v-17.03125c0-5.523438-4.480469-10-10-10h-40c-5.523438 0-10 4.476562-10 10v17.03125c-3.300781 1.582031-6.472656 3.421875-9.503906 5.519531l-14.777344-8.53125c-4.78125-2.761719-10.898438-1.121094-13.660156 3.660156l-20 34.640625c-2.761719 4.78125-1.121094 10.898438 3.660156 13.660156l14.546875 8.398438c-.179687 1.929688-.265625 3.785156-.265625 5.621094 0 1.835937.085938 3.691406.265625 5.621094l-14.546875 8.398437c-4.78125 2.761719-6.421875 8.878906-3.660156 13.660156zm38.878906-18.570312c-.640625-3.492188-.9375-6.386719-.9375-9.109375s.296875-5.617188.9375-9.109375c.761719-4.160157-1.175781-8.347657-4.835938-10.460938l-11.722656-6.769531 10-17.320312 11.902344 6.871093c3.664062 2.117188 8.265625 1.695313 11.484375-1.050781 4.679687-3.988281 9.921875-7.03125 15.585937-9.046875 3.984376-1.417969 6.644532-5.191406 6.644532-9.421875v-13.691406h20v13.691406c0 4.230469 2.664062 8 6.648437 9.421875 5.664063 2.015625 10.90625 5.058594 15.582031 9.046875 3.222657 2.746094 7.820313 3.167969 11.488282 1.050781l11.902344-6.871093 10 17.320312-11.722657 6.769531c-3.660156 2.113281-5.597656 6.300781-4.835937 10.460938.640625 3.492187.9375 6.386719.9375 9.109375s-.296875 5.617187-.9375 9.109375c-.761719 4.160156 1.175781 8.347656 4.835937 10.460937l11.722657 6.769532-10 17.320312-11.902344-6.871094c-3.664063-2.117187-8.265625-1.695312-11.488282 1.050782-4.675781 3.988281-9.917968 7.03125-15.582031 9.046874-3.984375 1.417969-6.648437 5.191407-6.648437 9.421876v13.691406h-20v-13.691406c0-4.230469-2.660156-8-6.644532-9.421876-5.664062-2.015624-10.90625-5.058593-15.585937-9.046874-3.21875-2.746094-7.816406-3.164063-11.484375-1.050782l-11.902344 6.871094-10-17.320312 11.722656-6.769532c3.660157-2.113281 5.597657-6.300781 4.835938-10.460937zm0 0"/><path d="m256 346.496094c16.539062 0 30-13.457032 30-30 0-16.542969-13.460938-30-30-30-16.542969 0-30 13.457031-30 30 0 16.542968 13.457031 30 30 30zm0-40c5.511719 0 10 4.484375 10 10s-4.488281 10-10 10c-5.515625 0-10-4.484375-10-10s4.484375-10 10-10zm0 0"/><path d="m60.03125 286.957031 5.972656-6.101562v66.640625c0 5.523437 4.476563 10 10 10 5.519532 0 10-4.476563 10-10v-87.09375l169.996094-173.828125 169.996094 173.828125v192.09375h-339.992188v-25c0-5.523438-4.480468-10-10-10-5.523437 0-10 4.476562-10 10v25h-10c-16.574218 0-30 13.421875-30 30 0 16.539062 13.457032 29.996094 30 29.996094h399.992188c16.574218 0 30-13.421876 30-29.996094 0-16.542969-13.457032-30-30-30h-10v-171.640625l5.964844 6.097656c13.597656 13.929687 35.75 14.007813 49.496093.574219 13.855469-13.546875 14.054688-35.695313.589844-49.46875l-221.015625-227.324219c-6.355469-6.503906-15.480469-10.234375-25.03125-10.234375-9.554688 0-18.675781 3.730469-25.050781 10.25l-84.949219 87.378906v-47.628906c0-5.523438-4.476562-10-10-10h-59.996094c-5.523437 0-10 4.476562-10 10v129.910156l-56.03125 57.625c-13.511718 13.820313-13.265625 35.964844.566406 49.488282 13.820313 13.523437 35.964844 13.273437 49.492188-.566407zm405.964844 195.535157c0 5.519531-4.480469 10-10 10h-399.992188c-5.515625 0-10-4.484376-10-10 0-5.519532 4.476563-10 10-10h399.992188c5.511718 0 10 4.488281 10 10zm-379.996094-421.992188h40v58.199219l-40 41.140625zm-61.707031 191.5c2.453125-2.5 217.796875-224.015625 220.976562-227.289062 2.617188-2.675782 6.527344-4.210938 10.730469-4.210938 4.199219 0 8.109375 1.535156 10.707031 4.191406l221.015625 227.328125c5.789063 5.917969 5.679688 15.410157-.25 21.207031-5.902344 5.769532-15.390625 5.710938-21.207031-.25l-203.117187-207.695312c-1.882813-1.925781-4.457032-3.007812-7.148438-3.007812s-5.269531 1.082031-7.148438 3.007812l-203.121093 207.695312c-5.875 6.011719-15.363281 5.96875-21.207031.25-5.894532-5.761718-6.082032-15.242187-.230469-21.226562zm0 0"/><path d="m76 397.496094c5.523438 0 10-4.480469 10-10 0-5.519532-4.476562-10-10-10-5.519531 0-9.996094 4.480468-9.996094 10 0 5.519531 4.476563 10 9.996094 10zm0 0"/></svg>