<svg height="512pt" viewBox="0 0 512 512" width="512pt" xmlns="http://www.w3.org/2000/svg"><path d="m213.585938 484.457031-186.011719-186.011719c-23.433594-23.433593-23.433594-61.425781 0-84.859374l186.011719-186.011719c23.433593-23.433594 61.425781-23.433594 84.859374 0l186.011719 186.011719c23.433594 23.433593 23.433594 61.425781 0 84.859374l-186.011719 186.011719c-23.433593 23.433594-61.425781 23.433594-84.859374 0zm0 0" fill="#ff6977"/><path d="m256.015625 462.027344c-3.09375 0-9.046875-.757813-14.144531-5.855469l-186.011719-186.011719c-7.796875-7.796875-7.796875-20.488281 0-28.289062l186.011719-186.011719c5.097656-5.09375 11.050781-5.855469 14.144531-5.855469s9.046875.761719 14.144531 5.859375l186.011719 186.007813c7.796875 7.800781 7.796875 20.488281 0 28.289062l-186.011719 186.011719c-5.097656 5.09375-11.050781 5.855469-14.144531 5.855469zm0 0" fill="#ffea60"/><path d="m342.726562 196.5-28.789062-27.773438-50.722656 52.582032c-3.933594 4.078125-10.464844 4.078125-14.394532 0l-50.722656-52.582032-28.792968 27.773438 63.90625 66.25c1.800781 1.863281 2.804687 4.351562 2.804687 6.941406v105.453125h40.003906v-105.453125c0-2.589844 1.003907-5.078125 2.804688-6.941406zm0 0" fill="#8690a6"/><path d="m491.527344 206.515625-186.007813-186.011719c-13.226562-13.222656-30.804687-20.503906-49.503906-20.503906s-36.277344 7.28125-49.5 20.503906l-14.195313 14.195313c-3.90625 3.902343-3.90625 10.234375 0 14.140625s10.238282 3.90625 14.144532 0l14.195312-14.191406c9.441406-9.445313 22-14.648438 35.355469-14.648438s25.914063 5.203125 35.359375 14.648438l186.011719 186.011718c9.445312 9.441406 14.644531 22 14.644531 35.355469s-5.199219 25.914063-14.644531 35.359375l-186.011719 186.011719c-9.445312 9.445312-22.003906 14.644531-35.359375 14.644531s-25.914063-5.199219-35.355469-14.644531l-186.011718-186.011719c-9.445313-9.445312-14.648438-22.003906-14.648438-35.359375s5.203125-25.914063 14.648438-35.355469l108.070312-108.070312c3.902344-3.90625 3.902344-10.238282 0-14.144532-3.90625-3.90625-10.238281-3.90625-14.144531 0l-108.070313 108.070313c-13.222656 13.222656-20.503906 30.800781-20.503906 49.5s7.28125 36.277344 20.503906 49.503906l186.011719 186.007813c13.644531 13.648437 31.574219 20.472656 49.5 20.472656s35.855469-6.824219 49.503906-20.472656l186.007813-186.007813c27.296875-27.296875 27.296875-71.710937 0-99.003906zm0 0"/><path d="m48.789062 277.230469 186.011719 186.011719c7.644531 7.644531 16.574219 8.785156 21.214844 8.785156s13.570313-1.140625 21.214844-8.785156l186.011719-186.011719c11.695312-11.699219 11.695312-30.730469 0-42.429688l-186.011719-186.011719c-7.644531-7.644531-16.574219-8.785156-21.214844-8.785156s-13.566406 1.140625-21.214844 8.785156l-186.011719 186.011719c-11.695312 11.699219-11.695312 30.734375 0 42.429688zm14.144532-28.285157 186.011718-186.011718c2.546876-2.550782 5.523438-2.929688 7.070313-2.929688s4.523437.378906 7.070313 2.929688l186.011718 186.011718c3.898438 3.898438 3.898438 10.242188 0 14.140626l-186.011718 186.011718c-2.546876 2.550782-5.523438 2.929688-7.070313 2.929688-1.890625 0-4.652344-.507813-7.070313-2.929688l-186.011718-186.007812c-3.898438-3.902344-3.898438-10.246094 0-14.144532zm0 0"/><path d="m226.015625 269.691406v105.453125c0 5.523438 4.476563 10 10 10h40.003906c5.519531 0 10-4.476562 10-10 0-5.523437-4.480469-10-10-10h-30.003906v-95.453125c0-5.203125-1.992187-10.136718-5.605469-13.882812l-56.964844-59.054688 14.398438-13.886718 43.777344 45.382812c3.804687 3.945312 8.914062 6.117188 14.394531 6.117188h.003906c5.476563 0 10.589844-2.171876 14.394531-6.113282l43.777344-45.386718 14.398438 13.886718-56.964844 59.054688c-3.613281 3.746094-5.605469 8.679687-5.605469 13.882812v12.914063c-.066406.460937-.097656.929687-.097656 1.410156 0 5.414063 4.300781 9.820313 9.671875 9.996094.046875 0 .09375 0 .132812.003906 2.71875.066406 5.320313-.9375 7.261719-2.824219 1.9375-1.882812 3.03125-4.46875 3.03125-7.171875v-14.328125l63.910157-66.246094c3.832031-3.976562 3.71875-10.308593-.257813-14.140624l-28.789063-27.773438c-1.910156-1.84375-4.453124-2.84375-7.125-2.800781-2.652343.046875-5.175781 1.144531-7.015624 3.054687l-50.726563 52.582032-50.71875-52.582032c-1.84375-1.910156-4.367187-3.007812-7.019531-3.054687-2.671875-.054688-5.214844.957031-7.125 2.800781l-28.789063 27.773438c-3.976562 3.832031-4.089843 10.164062-.253906 14.140624zm0 0"/><path d="m284.328125 323c-2.308594-3.535156-6.835937-5.195312-10.894531-4.097656-3.992188 1.074218-6.941406 4.566406-7.363282 8.675781-.425781 4.144531 1.914063 8.246094 5.675782 10.015625 3.671875 1.722656 8.140625 1.042969 11.109375-1.734375 3.492187-3.273437 4.195312-8.886719 1.472656-12.859375zm0 0"/><path d="m159.027344 76.722656c1.632812 3.910156 5.636718 6.421875 9.871094 6.152344 4-.257812 7.542968-2.964844 8.832031-6.761719 1.390625-4.078125-.074219-8.75-3.566407-11.285156-3.21875-2.335937-7.625-2.546875-11.039062-.503906-4.195312 2.503906-5.980469 7.882812-4.097656 12.398437zm0 0"/></svg>