<svg height="512pt" viewBox="0 0 512 512" width="512pt" xmlns="http://www.w3.org/2000/svg"><path d="m256 502c135.492188 0 246-110.507812 246-246s-110.507812-246-246-246-246 110.507812-246 246 110.507812 246 246 246zm0 0" fill="#ffef75" fill-rule="evenodd"/><path d="m437.019531 74.980469c-48.351562-48.351563-112.640625-74.980469-181.019531-74.980469-52.027344 0-102.125 15.535156-144.867188 44.921875-4.550781 3.132813-5.703124 9.355469-2.574218 13.90625 3.128906 4.554687 9.355468 5.707031 13.90625 2.574219 39.394531-27.085938 85.570312-41.402344 133.535156-41.402344 130.128906 0 236 105.871094 236 236s-105.871094 236-236 236-236-105.871094-236-236c0-47.972656 14.316406-94.144531 41.398438-133.53125 3.128906-4.550781 1.976562-10.773438-2.574219-13.902344-4.546875-3.128906-10.773438-1.980468-13.90625 2.570313-29.386719 42.734375-44.917969 92.828125-44.917969 144.863281 0 68.378906 26.628906 132.667969 74.980469 181.019531 48.351562 48.351563 112.640625 74.980469 181.019531 74.980469s132.667969-26.628906 181.019531-74.980469c48.351563-48.351562 74.980469-112.640625 74.980469-181.019531s-26.628906-132.667969-74.980469-181.019531zm0 0"/><path d="m82.046875 92.050781c2.5625 0 5.125-.976562 7.078125-2.929687 3.902344-3.902344 3.902344-10.234375 0-14.140625-3.90625-3.90625-10.238281-3.90625-14.144531 0l-.003907.003906c-3.90625 3.90625-3.902343 10.234375 0 14.140625 1.953126 1.953125 4.511719 2.925781 7.070313 2.925781zm0 0"/><path d="m175.660156 325.289062c-1.429687-5.335937-6.914062-8.5-12.246094-7.070312-5.335937 1.429688-8.503906 6.910156-7.074218 12.246094 12.066406 45.023437 53.046875 76.46875 99.660156 76.46875s87.59375-31.441406 99.660156-76.46875c1.429688-5.335938-1.738281-10.816406-7.074218-12.246094-5.335938-1.429688-10.816407 1.734375-12.246094 7.070312-9.726563 36.296876-42.761719 61.644532-80.339844 61.644532s-70.613281-25.347656-80.339844-61.644532zm0 0"/><path d="m310.53125 252.066406c3.085938-11.507812 13.558594-19.546875 25.472656-19.546875 11.910156 0 22.382813 8.039063 25.46875 19.546875 1.195313 4.464844 5.234375 7.414063 9.652344 7.414063.855469 0 1.726562-.113281 2.59375-.34375 5.335938-1.429688 8.5-6.914063 7.070312-12.246094-5.421874-20.238281-23.835937-34.371094-44.785156-34.371094-20.949218 0-39.367187 14.132813-44.789062 34.371094-1.429688 5.332031 1.734375 10.816406 7.070312 12.246094 5.339844 1.429687 10.820313-1.738281 12.246094-7.070313zm0 0"/><path d="m175.996094 212.519531c-20.949219 0-39.363282 14.132813-44.785156 34.371094-1.429688 5.332031 1.734374 10.816406 7.070312 12.246094 5.339844 1.429687 10.820312-1.738281 12.246094-7.070313 3.085937-11.507812 13.558594-19.546875 25.46875-19.546875 11.914062 0 22.386718 8.039063 25.472656 19.546875 1.195312 4.464844 5.234375 7.414063 9.652344 7.414063.855468 0 1.726562-.113281 2.59375-.34375 5.335937-1.429688 8.5-6.914063 7.070312-12.246094-5.421875-20.238281-23.839844-34.371094-44.789062-34.371094zm0 0"/></svg>