<?xml version="1.0" encoding="iso-8859-1"?>
<!-- Generator: Adobe Illustrator 19.0.0, SVG Export Plug-In . SVG Version: 6.00 Build 0)  -->
<svg version="1.1" id="Capa_1" xmlns="http://www.w3.org/2000/svg" xmlns:xlink="http://www.w3.org/1999/xlink" x="0px" y="0px"
	 viewBox="0 0 512 512" style="enable-background:new 0 0 512 512;" xml:space="preserve">
<path style="fill:#EE3C32;" d="M256,10C120.138,10,10,120.138,10,256s110.138,246,246,246s246-110.138,246-246S391.862,10,256,10z"
	/>
<path style="fill:#ECECEC;" d="M256,50C142.229,50,50,142.229,50,256s92.229,206,206,206s206-92.229,206-206S369.771,50,256,50z"/>
<circle style="fill:#AAAAA0;" cx="256" cy="256" r="20"/>
<g>
	<path style="fill:#231F20;" d="M437.019,74.981C388.667,26.628,324.38,0,256,0S123.333,26.628,74.981,74.981
		C26.628,123.333,0,187.62,0,256s26.628,132.667,74.981,181.019C123.333,485.372,187.62,512,256,512s132.667-26.628,181.019-74.981
		C485.372,388.667,512,324.38,512,256S485.372,123.333,437.019,74.981z M256,492C125.869,492,20,386.131,20,256S125.869,20,256,20
		s236,105.869,236,236S386.131,492,256,492z"/>
	<path style="fill:#231F20;" d="M408.735,103.265C367.938,62.468,313.696,40,256,40s-111.938,22.468-152.735,63.265
		S40,198.304,40,256s22.468,111.938,63.265,152.735S198.304,472,256,472s111.938-22.468,152.735-63.265S472,313.696,472,256
		S449.532,144.062,408.735,103.265z M266,451.747V402c0-5.523-4.477-10-10-10s-10,4.477-10,10v49.747
		C145.866,446.69,65.31,366.134,60.253,266H110c5.523,0,10-4.477,10-10s-4.477-10-10-10H60.253
		C65.31,145.866,145.866,65.31,246,60.253V110c0,5.523,4.477,10,10,10c5.523,0,10-4.477,10-10V60.253
		C366.134,65.31,446.69,145.866,451.747,246H402c-5.523,0-10,4.477-10,10c0,5.523,4.477,10,10,10h49.747
		C446.69,366.134,366.134,446.69,266,451.747z"/>
	<path style="fill:#231F20;" d="M290.939,211.225c-2.617-0.002-5.233,0.919-7.069,2.765l-14.942,14.943
		C265.01,227.054,260.626,226,256,226s-9.011,1.054-12.927,2.932c0,0-77.918-77.918-78.003-78.003
		c-3.859-3.859-10.289-3.851-14.14,0c-3.9,3.9-3.9,10.24,0,14.14l78.003,78.003C227.054,246.989,226,251.374,226,256
		c0,16.542,13.458,30,30,30s30-13.458,30-30c0-4.625-1.054-9.008-2.931-12.924c0,0,14.899-14.895,14.94-14.936
		c3.818-3.817,3.796-10.353,0.001-14.149C296.17,212.149,293.553,211.227,290.939,211.225z M256,266c-5.514,0-10-4.486-10-10
		s4.486-10,10-10s10,4.486,10,10S261.514,266,256,266z"/>
	<circle style="fill:#231F20;" cx="319" cy="193" r="10"/>
</g>
<g>
</g>
<g>
</g>
<g>
</g>
<g>
</g>
<g>
</g>
<g>
</g>
<g>
</g>
<g>
</g>
<g>
</g>
<g>
</g>
<g>
</g>
<g>
</g>
<g>
</g>
<g>
</g>
<g>
</g>
</svg>
