<svg height="512pt" viewBox="0 0 512 512" width="512pt" xmlns="http://www.w3.org/2000/svg"><path d="m502 256c0 135.863281-110.136719 246-246 246s-246-110.136719-246-246 110.136719-246 246-246 246 110.136719 246 246zm0 0" fill="#f9f9f9"/><path d="m256 462c-113.589844 0-206-92.410156-206-206s92.410156-206 206-206 206 92.410156 206 206-92.410156 206-206 206zm0 0" fill="#60a4ff"/><path d="m407.5 202.667969-72.828125-56.800781v27.75h-7.449219c-27.945312 0-53.1875 11.558593-71.222656 30.148437-18.03125-18.589844-43.273438-30.148437-71.21875-30.148437h-8.046875v-27.75l-72.828125 56.808593 72.828125 56.800781v-29.859374h8.046875c23.867188 0 43.21875 19.351562 43.21875 43.222656v134.683594h56v-134.683594c0-23.871094 19.351562-43.222656 43.222656-43.222656h7.449219v29.859374zm0 0" fill="#f9f9f9"/><path d="m437.019531 74.980469c-48.351562-48.351563-112.640625-74.980469-181.019531-74.980469s-132.667969 26.628906-181.019531 74.980469c-48.351563 48.351562-74.980469 112.640625-74.980469 181.019531s26.628906 132.667969 74.980469 181.019531c48.351562 48.351563 112.640625 74.980469 181.019531 74.980469s132.667969-26.628906 181.019531-74.980469c48.351563-48.351562 74.980469-112.640625 74.980469-181.019531s-26.628906-132.667969-74.980469-181.019531zm-14.140625 347.898437c-44.574218 44.574219-103.839844 69.121094-166.878906 69.121094s-122.304688-24.546875-166.878906-69.121094c-44.574219-44.574218-69.121094-103.839844-69.121094-166.878906s24.546875-122.304688 69.121094-166.878906c44.574218-44.574219 103.839844-69.121094 166.878906-69.121094s122.304688 24.546875 166.878906 69.121094c44.574219 44.574218 69.121094 103.839844 69.121094 166.878906s-24.546875 122.304688-69.121094 166.878906zm0 0"/><path d="m435.796875 136.425781c-3.066406-4.59375-9.273437-5.832031-13.867187-2.769531-4.59375 3.066406-5.835938 9.277344-2.769532 13.871094 21.484375 32.203125 32.839844 69.710937 32.839844 108.472656 0 108.074219-87.925781 196-196 196s-196-87.925781-196-196 87.925781-196 196-196c35.957031 0 71.140625 9.867188 101.75 28.539062 4.714844 2.875 10.867188 1.386719 13.742188-3.328124 2.878906-4.71875 1.386718-10.871094-3.328126-13.746094-33.746093-20.585938-72.53125-31.464844-112.164062-31.464844-119.101562 0-216 96.898438-216 216s96.898438 216 216 216 216-96.898438 216-216c0-42.722656-12.519531-84.070312-36.203125-119.574219zm0 0"/><path d="m330.28125 136.882812c-3.433594 1.675782-5.609375 5.164063-5.609375 8.984376v17.78125c-25.535156.578124-49.515625 9.832031-68.671875 26.378906-19.308594-16.675782-43.507812-25.945313-69.265625-26.390625v-17.769531c0-3.820313-2.175781-7.308594-5.613281-8.984376-3.433594-1.679687-7.523438-1.25-10.535156 1.101563l-72.832032 56.808594c-2.429687 1.894531-3.851562 4.804687-3.851562 7.886719 0 3.078124 1.421875 5.988281 3.851562 7.882812l72.832032 56.800781c3.011718 2.351563 7.101562 2.777344 10.535156 1.101563 3.433594-1.679688 5.613281-5.164063 5.613281-8.988282v-19.800781c17.382813 1.015625 31.234375 15.476563 31.261719 33.105469.011718 5.519531 4.484375 9.984375 10 9.984375h.019531c5.519531-.007813 9.992187-4.492187 9.980469-10.015625-.046875-29.296875-23.921875-53.132812-53.21875-53.132812h-8.042969c-5.523437 0-10 4.476562-10 10v9.378906l-46.570313-36.320313 46.570313-36.328125v7.269532c0 5.523437 4.476563 10 10 10h8.042969c24.339844 0 47.085937 9.628906 64.042968 27.109374 1.882813 1.941407 4.472657 3.039063 7.179688 3.039063 2.703125 0 5.292969-1.097656 7.175781-3.039063 16.960938-17.480468 39.703125-27.109374 64.042969-27.109374h7.449219c5.523437 0 10-4.476563 10-10v-7.269532l46.570312 36.316406-46.570312 36.328126v-9.375c0-5.523438-4.476563-10-10-10h-7.449219c-29.34375 0-53.21875 23.875-53.21875 53.222656v124.683594h-36v-34.757813c0-5.523437-4.476562-10-10-10s-10 4.476563-10 10v44.757813c0 5.523437 4.476562 10 10 10h56c5.523438 0 10-4.476563 10-10v-134.683594c0-17.460938 13.539062-31.816406 30.667969-33.125v19.761718c0 3.824219 2.179687 7.308594 5.613281 8.988282 3.433594 1.675781 7.523438 1.246094 10.539062-1.105469l72.828126-56.808594c2.429687-1.894531 3.851562-4.804687 3.851562-7.886719 0-3.078124-1.421875-5.988281-3.851562-7.882812l-72.828126-56.800781c-3.011718-2.347657-7.101562-2.777344-10.539062-1.097657zm0 0"/><path d="m219.691406 322.378906c2.28125 3.488282 6.714844 5.15625 10.734375 4.140625 4.066407-1.027343 7.09375-4.542969 7.523438-8.710937.410156-3.972656-1.722657-7.917969-5.238281-9.789063-3.847657-2.046875-8.695313-1.34375-11.78125 1.742188-3.332032 3.328125-3.847657 8.703125-1.238282 12.617187zm0 0"/><path d="m389.390625 111.320312c1.609375 3.863282 5.539063 6.355469 9.71875 6.15625 4.125-.195312 7.75-3.011718 9.023437-6.929687 1.285157-3.953125-.113281-8.46875-3.425781-10.988281-3.378906-2.570313-8.097656-2.71875-11.636719-.378906-3.941406 2.605468-5.464843 7.792968-3.679687 12.140624zm0 0"/></svg>