<?xml version="1.0" encoding="UTF-8" standalone="no"?>
<svg
   xmlns:dc="http://purl.org/dc/elements/1.1/"
   xmlns:cc="http://creativecommons.org/ns#"
   xmlns:rdf="http://www.w3.org/1999/02/22-rdf-syntax-ns#"
   xmlns:svg="http://www.w3.org/2000/svg"
   xmlns="http://www.w3.org/2000/svg"
   xmlns:sodipodi="http://sodipodi.sourceforge.net/DTD/sodipodi-0.dtd"
   xmlns:inkscape="http://www.inkscape.org/namespaces/inkscape"
   height="512pt"
   viewBox="0 0 512 512"
   width="512pt"
   version="1.1"
   id="svg8519"
   sodipodi:docname="011-junction-split-join.svg"
   inkscape:version="0.92.4 5da689c313, 2019-01-14">
  <metadata
     id="metadata8525">
    <rdf:RDF>
      <cc:Work
         rdf:about="">
        <dc:format>image/svg+xml</dc:format>
        <dc:type
           rdf:resource="http://purl.org/dc/dcmitype/StillImage" />
        <dc:title />
      </cc:Work>
    </rdf:RDF>
  </metadata>
  <defs
     id="defs8523" />
  <sodipodi:namedview
     pagecolor="#ffffff"
     bordercolor="#666666"
     borderopacity="1"
     objecttolerance="10"
     gridtolerance="10"
     guidetolerance="10"
     inkscape:pageopacity="0"
     inkscape:pageshadow="2"
     inkscape:window-width="2552"
     inkscape:window-height="1379"
     id="namedview8521"
     showgrid="false"
     inkscape:zoom="0.69140625"
     inkscape:cx="-218.39367"
     inkscape:cy="75.696045"
     inkscape:window-x="0"
     inkscape:window-y="57"
     inkscape:window-maximized="0"
     inkscape:current-layer="g9094" />
  <g
     id="g9094">
    <g
       id="g9107"
       transform="translate(-7.7543944e-6,-7.6293944e-6)">
      <path
         d="M 213.58594,484.45703 27.574219,298.44531 c -23.433594,-23.43359 -23.433594,-61.42578 0,-84.85937 L 213.58594,27.574219 c 23.43359,-23.433594 61.42578,-23.433594 84.85937,0 L 484.45703,213.58594 c 23.43359,23.43359 23.43359,61.42578 0,84.85937 L 298.44531,484.45703 c -23.43359,23.43359 -61.42578,23.43359 -84.85937,0 z m 0,0"
         id="path8503"
         inkscape:connector-curvature="0"
         style="fill:#ff6977" />
      <path
         d="m 256.01562,462.02734 c -3.09375,0 -9.04687,-0.75781 -14.14453,-5.85547 L 55.859375,270.16016 c -7.796875,-7.79688 -7.796875,-20.48828 0,-28.28907 L 241.87109,55.859375 c 5.09766,-5.09375 11.05078,-5.855469 14.14453,-5.855469 3.09375,0 9.04688,0.761719 14.14454,5.859375 L 456.17187,241.87109 c 7.79688,7.80079 7.79688,20.48828 0,28.28907 L 270.16016,456.17187 c -5.09766,5.09375 -11.05079,5.85547 -14.14454,5.85547 z m 0,0"
         id="path8505"
         inkscape:connector-curvature="0"
         style="fill:#ffea60" />
      <path
         d="M 491.52734,206.51562 305.51953,20.503906 C 292.29297,7.28125 274.71484,0 256.01562,0 c -18.69921,0 -36.27734,7.28125 -49.5,20.503906 l -14.19531,14.195313 c -3.90625,3.902343 -3.90625,10.234375 0,14.140625 3.90625,3.90625 10.23828,3.90625 14.14453,0 L 220.66016,34.648438 C 230.10156,25.203125 242.66016,20 256.01562,20 c 13.35547,0 25.91407,5.203125 35.35938,14.648438 L 477.38672,220.66016 c 9.44531,9.4414 14.64453,22 14.64453,35.35546 0,13.35547 -5.19922,25.91407 -14.64453,35.35938 L 291.375,477.38672 c -9.44531,9.44531 -22.00391,14.64453 -35.35938,14.64453 -13.35546,0 -25.91406,-5.19922 -35.35546,-14.64453 L 34.648438,291.375 C 25.203125,281.92969 20,269.37109 20,256.01562 20,242.66016 25.203125,230.10156 34.648438,220.66016 L 142.71875,112.58984 c 3.90234,-3.90625 3.90234,-10.23828 0,-14.144528 -3.90625,-3.90625 -10.23828,-3.90625 -14.14453,0 L 20.503906,206.51562 C 7.28125,219.73828 0,237.31641 0,256.01562 c 0,18.69922 7.28125,36.27735 20.503906,49.50391 L 206.51562,491.52734 c 13.64454,13.64844 31.57422,20.47266 49.5,20.47266 17.92579,0 35.85547,-6.82422 49.50391,-20.47266 L 491.52734,305.51953 c 27.29688,-27.29687 27.29688,-71.71094 0,-99.00391 z m 0,0"
         id="path8509"
         inkscape:connector-curvature="0" />
      <path
         d="M 48.789062,277.23047 234.80078,463.24219 c 7.64453,7.64453 16.57422,8.78515 21.21484,8.78515 4.64063,0 13.57032,-1.14062 21.21485,-8.78515 L 463.24219,277.23047 c 11.69531,-11.69922 11.69531,-30.73047 0,-42.42969 L 277.23047,48.789062 c -7.64453,-7.644531 -16.57422,-8.785156 -21.21485,-8.785156 -4.64062,0 -13.5664,1.140625 -21.21484,8.785156 L 48.789062,234.80078 c -11.695312,11.69922 -11.695312,30.73438 0,42.42969 z M 62.933594,248.94531 248.94531,62.933594 c 2.54688,-2.550782 5.52344,-2.929688 7.07031,-2.929688 1.54688,0 4.52344,0.378906 7.07032,2.929688 L 449.09766,248.94531 c 3.89843,3.89844 3.89843,10.24219 0,14.14063 L 263.08594,449.09766 c -2.54688,2.55078 -5.52344,2.92968 -7.07031,2.92968 -1.89063,0 -4.65235,-0.50781 -7.07032,-2.92968 L 62.933594,263.08984 c -3.898438,-3.90234 -3.898438,-10.24609 0,-14.14453 z m 0,0"
         id="path8511"
         inkscape:connector-curvature="0" />
      <path
         d="m 159.02734,76.722656 c 1.63282,3.910156 5.63672,6.421875 9.8711,6.152344 4,-0.257812 7.54297,-2.964844 8.83203,-6.761719 1.39062,-4.078125 -0.0742,-8.75 -3.56641,-11.285156 -3.21875,-2.335937 -7.625,-2.546875 -11.03906,-0.503906 -4.19531,2.503906 -5.98047,7.882812 -4.09766,12.398437 z m 0,0"
         id="path8517"
         inkscape:connector-curvature="0" />
    </g>
    <g
       id="g11453"
       transform="translate(16.5)">
      <path
         style="fill:#8690a6"
         inkscape:connector-curvature="0"
         d="m 180.56662,342.70997 -27.77344,-28.78906 52.58203,-50.72265 c 4.07813,-3.9336 4.07813,-10.46485 0,-14.39454 l -52.58203,-50.72265 27.77344,-28.79297 66.25,63.90625 c 1.86328,1.80078 4.35156,2.80469 6.9414,2.80469 h 105.45313 v 40.0039 H 253.75802 c -2.58984,0 -5.07812,1.00391 -6.9414,2.80469 z m 0,0"
         id="path8507" />
      <path
         sodipodi:nodetypes="czccscccscscc"
         inkscape:connector-curvature="0"
         transform="scale(0.74999998)"
         id="path11384"
         d="m 294.29883,386.77148 c 0,0 -6.91681,9.08952 1.76247,17.08991 8.67929,8.0004 17.44651,1.43158 17.44651,1.43158 l 24.83203,-23.95703 h 19.10352 c 3.60417,0 7.05207,-1.45964 9.5625,-4.04297 2.51561,-2.58855 3.85416,-6.05664 3.76562,-9.68164 -0.005,-0.0521 -0.004,-0.1152 -0.004,-0.17774 -0.23438,-7.16145 -6.10937,-12.89453 -13.32813,-12.89453 -0.64061,0 -1.26627,0.0423 -1.88086,0.13086 h -17.21875 c -6.9375,0 -13.51496,2.65495 -18.50976,7.47266 z"
         style="stroke-width:1.33333337" />
      <path
         sodipodi:nodetypes="czccccccczcccc"
         inkscape:connector-curvature="0"
         transform="scale(0.74999998)"
         id="path11380"
         d="m 244.1275,398.34601 c 0,0 8.56518,-8.43734 -1.04029,-17.69906 -9.60547,-9.26172 -18.17065,-0.82438 -18.17065,-0.82438 l -30.45172,29.14227 c -2.54688,2.45312 -4.00973,5.81902 -4.07226,9.35547 -0.0573,3.56251 1.27604,6.95314 3.73437,9.5 l 37.03125,38.38477 c 5.10938,5.30209 13.55144,5.45312 18.85352,0.34375 l 30.6413,-28.71722 c 0,0 7.41462,-8.05383 -2.19084,-17.31457 -9.60546,-9.26074 -17.02009,-1.20691 -17.02009,-1.20691 l -20.35225,18.78557 -18.51562,-19.19726 z"
         style="stroke-width:1.33333337" />
      <path
         sodipodi:nodetypes="ccccccczccssccccscssssscccc"
         inkscape:connector-curvature="0"
         transform="scale(0.74999998)"
         id="path8513"
         d="m 240.51172,212.38477 c -3.41211,0.0612 -6.79883,1.42513 -9.35352,4.07617 l -37.03125,38.38476 c -2.45833,2.54688 -3.80731,5.93751 -3.73437,9.5 0.0625,3.53647 1.52538,6.90104 4.07226,9.35938 l 70.10938,67.625 -8.69922,8.39258 c 0,0 -7.92599,7.41463 1.68045,16.67732 9.60644,9.26269 17.53244,1.84807 17.53244,1.84807 l 8.00195,-7.71875 c 5.2552,-5.07292 8.15039,-11.89128 8.15039,-19.19336 v -0.006 c 0,-7.30728 -2.89583,-14.12044 -8.15625,-19.19336 l -60.50976,-58.36914 18.51562,-19.19727 78.74024,75.95313 c 4.9948,4.8177 11.57226,7.47265 18.50976,7.47265 h 127.27149 v 40.00586 c 0,7.35938 5.96744,13.33399 13.33203,13.33399 7.36459,0 13.33398,-5.97461 13.33398,-13.33399 v -53.33789 c 0,-7.36457 -5.96939,-13.33398 -13.33398,-13.33398 H 338.33984 l -88.32812,-85.20899 c -2.65104,-2.55728 -6.08789,-3.79752 -9.5,-3.73632 z"
         style="stroke-width:1.33333337" />
      <path
         d="m 307.0635,284.31022 c -3.53516,-2.30859 -5.19531,-6.83593 -4.09766,-10.89453 1.07422,-3.99218 4.56641,-6.9414 8.67578,-7.36328 4.14454,-0.42578 8.2461,1.91406 10.01563,5.67578 1.72266,3.67188 1.04297,8.14063 -1.73438,11.10938 -3.27343,3.49219 -8.88671,4.19531 -12.85937,1.47265 z m 0,0"
         id="path8515"
         inkscape:connector-curvature="0" />
    </g>
  </g>
</svg>
