<svg height="511pt" viewBox="0 1 511 511.99975" width="511pt" xmlns="http://www.w3.org/2000/svg"><path d="m214.050781 484.425781-186.011719-186.011719c-23.433593-23.433593-23.433593-61.425781 0-84.859374l186.011719-186.011719c23.433594-23.433594 61.425781-23.433594 84.859375 0l186.011719 186.011719c23.429687 23.433593 23.429687 61.425781 0 84.859374l-186.011719 186.011719c-23.433594 23.433594-61.425781 23.433594-84.859375 0zm0 0" fill="#ff6977"/><path d="m256.480469 461.996094c-3.09375 0-9.046875-.761719-14.144531-5.859375l-186.011719-186.011719c-7.796875-7.796875-7.796875-20.484375 0-28.285156l186.011719-186.011719c5.097656-5.097656 11.050781-5.859375 14.144531-5.859375s9.046875.761719 14.144531 5.859375l186.007812 186.011719c7.800782 7.796875 7.800782 20.488281 0 28.285156l-186.011718 186.011719c-5.09375 5.097656-11.046875 5.859375-14.140625 5.859375zm0 0" fill="#ffea60"/><path d="m296.046875 233.640625c-9.441406 0-17.097656-7.65625-17.097656-17.097656v-74.433594h-44.941407v74.433594c0 9.441406-7.65625 17.097656-17.097656 17.097656h-84.484375v44.6875h84.484375c9.441406 0 17.097656 7.652344 17.097656 17.097656v74.429688h44.941407v-74.429688c0-9.445312 7.65625-17.097656 17.097656-17.097656h84.484375v-44.6875zm0 0" fill="#8690a6"/><path d="m491.992188 206.480469-186.011719-186.007813c-27.292969-27.296875-71.707031-27.296875-99.003907 0l-186.007812 186.007813c-27.296875 27.296875-27.296875 71.710937.03125 99.035156l.109375.113281c3.921875 3.886719 10.253906 3.859375 14.144531-.0625s3.863282-10.253906-.0625-14.144531l-.082031-.082031c-9.445313-9.441406-14.644531-22-14.644531-35.355469 0-13.359375 5.199218-25.914063 14.644531-35.359375l186.011719-186.011719c9.445312-9.445312 22-14.644531 35.359375-14.644531 13.355469 0 25.914062 5.199219 35.355469 14.644531l186.011718 186.011719c9.445313 9.445312 14.644532 22 14.644532 35.359375 0 13.355469-5.199219 25.910156-14.644532 35.355469l-186.011718 186.011718c-9.441407 9.445313-22 14.648438-35.355469 14.648438s-25.914063-5.203125-35.359375-14.648438l-122.261719-122.261718c-3.90625-3.90625-10.238281-3.90625-14.144531 0s-3.90625 10.238281 0 14.144531l122.261718 122.261719c13.222657 13.222656 30.804688 20.503906 49.503907 20.503906s36.277343-7.28125 49.5-20.503906l186.011719-186.011719c13.222656-13.222656 20.503906-30.800781 20.503906-49.5s-7.28125-36.28125-20.503906-49.503906zm0 0"/><path d="m256.480469 471.996094c4.640625 0 13.566406-1.140625 21.214843-8.785156l164.847657-164.847657c3.90625-3.90625 3.90625-10.238281 0-14.144531s-10.238281-3.90625-14.144531 0l-164.847657 164.847656c-2.546875 2.546875-5.523437 2.929688-7.070312 2.929688-1.890625 0-4.652344-.507813-7.070313-2.929688l-186.011718-186.011718c-3.898438-3.898438-3.898438-10.246094 0-14.144532l186.007812-186.007812c2.550781-2.550782 5.527344-2.933594 7.074219-2.933594s4.523437.382812 7.070312 2.933594l163.644531 163.640625c3.90625 3.902343 10.234376 3.902343 14.140626 0 3.90625-3.90625 3.90625-10.238281 0-14.144531l-163.640626-163.640626c-7.648437-7.648437-16.574218-8.789062-21.214843-8.789062s-13.566407 1.144531-21.214844 8.789062l-186.011719 186.011719c-11.695312 11.695313-11.695312 30.730469 0 42.429688l186.011719 186.011719c7.644531 7.644531 16.570313 8.785156 21.214844 8.785156zm0 0"/><path d="m234.007812 379.855469h44.941407c5.523437 0 10-4.476563 10-10v-74.433594c0-3.910156 3.1875-7.097656 7.097656-7.097656h84.488281c5.519532 0 10-4.476563 10-10v-44.683594c0-5.523437-4.480468-10-10-10h-84.488281c-3.910156 0-7.097656-3.183594-7.097656-7.097656v-74.433594c0-5.523437-4.476563-10-10-10h-44.941407c-5.519531 0-10 4.476563-10 10v74.433594c0 3.914062-3.183593 7.097656-7.097656 7.097656h-84.484375c-5.523437 0-10 4.476563-10 10v44.683594c0 5.523437 4.476563 10 10 10h84.484375c3.914063 0 7.097656 3.1875 7.097656 7.097656v74.433594c0 5.523437 4.480469 10 10 10zm-17.097656-111.53125h-74.484375v-24.683594h74.484375c14.941406 0 27.101563-12.15625 27.101563-27.097656v-64.433594h24.9375v64.433594c0 14.941406 12.15625 27.097656 27.097656 27.097656h74.488281v24.683594h-74.488281c-14.941406 0-27.097656 12.15625-27.097656 27.101562v64.429688h-24.9375v-64.429688c0-14.945312-12.15625-27.101562-27.101563-27.101562zm0 0"/><path d="m454.0625 259.554688c2.332031 3.464843 6.695312 5.160156 10.75 4.136718 4.070312-1.023437 7.089844-4.542968 7.519531-8.714844.421875-4.082031-1.847656-8.136718-5.527343-9.945312-3.800782-1.867188-8.5-1.105469-11.492188 1.902344-3.320312 3.335937-3.859375 8.695312-1.25 12.621094zm0 0"/><path d="m68.925781 326.238281c-1.667969-3.917969-5.675781-6.457031-9.949219-6.148437-4.15625.300781-7.75 3.226562-8.898437 7.226562-1.152344 4.015625.394531 8.4375 3.785156 10.875 3.339844 2.398438 7.953125 2.46875 11.371094.1875 3.914063-2.609375 5.503906-7.792968 3.691406-12.140625zm0 0"/></svg>