<?xml version="1.0" encoding="UTF-8" standalone="no"?>
<svg
   xmlns:dc="http://purl.org/dc/elements/1.1/"
   xmlns:cc="http://creativecommons.org/ns#"
   xmlns:rdf="http://www.w3.org/1999/02/22-rdf-syntax-ns#"
   xmlns:svg="http://www.w3.org/2000/svg"
   xmlns="http://www.w3.org/2000/svg"
   id="svg6014"
   version="1.1"
   viewBox="0 0 180.62224 180.62224"
   height="180.62224mm"
   width="180.62224mm">
  <defs
     id="defs6008" />
  <metadata
     id="metadata6011">
    <rdf:RDF>
      <cc:Work
         rdf:about="">
        <dc:format>image/svg+xml</dc:format>
        <dc:type
           rdf:resource="http://purl.org/dc/dcmitype/StillImage" />
        <dc:title></dc:title>
      </cc:Work>
    </rdf:RDF>
  </metadata>
  <g
     transform="translate(64.608736,140.29326)"
     id="layer1">
    <g
       transform="matrix(0.3527778,0,0,0.3527778,-64.608736,-140.29326)"
       id="g9107-3-6">
      <path
         style="fill:#ffffff"
         id="path8503-6-8"
         d="M 213.58594,484.45703 27.574219,298.44531 c -23.433594,-23.43359 -23.433594,-61.42578 0,-84.85937 L 213.58594,27.574219 c 23.43359,-23.433594 61.42578,-23.433594 84.85937,0 L 484.45703,213.58594 c 23.43359,23.43359 23.43359,61.42578 0,84.85937 L 298.44531,484.45703 c -23.43359,23.43359 -61.42578,23.43359 -84.85937,0 z m 0,0" />
      <path
         style="fill:#60a4ff"
         id="path8505-7-8"
         d="m 256.01562,462.02734 c -3.09375,0 -9.04687,-0.75781 -14.14453,-5.85547 L 55.859375,270.16016 c -7.796875,-7.79688 -7.796875,-20.48828 0,-28.28907 L 241.87109,55.859375 c 5.09766,-5.09375 11.05078,-5.855469 14.14453,-5.855469 3.09375,0 9.04688,0.761719 14.14454,5.859375 L 456.17187,241.87109 c 7.79688,7.80079 7.79688,20.48828 0,28.28907 L 270.16016,456.17187 c -5.09766,5.09375 -11.05079,5.85547 -14.14454,5.85547 z m 0,0" />
      <path
         id="path8509-5-4"
         d="M 491.52734,206.51562 305.51953,20.503906 C 292.29297,7.28125 274.71484,0 256.01562,0 c -18.69921,0 -36.27734,7.28125 -49.5,20.503906 l -14.19531,14.195313 c -3.90625,3.902343 -3.90625,10.234375 0,14.140625 3.90625,3.90625 10.23828,3.90625 14.14453,0 L 220.66016,34.648438 C 230.10156,25.203125 242.66016,20 256.01562,20 c 13.35547,0 25.91407,5.203125 35.35938,14.648438 L 477.38672,220.66016 c 9.44531,9.4414 14.64453,22 14.64453,35.35546 0,13.35547 -5.19922,25.91407 -14.64453,35.35938 L 291.375,477.38672 c -9.44531,9.44531 -22.00391,14.64453 -35.35938,14.64453 -13.35546,0 -25.91406,-5.19922 -35.35546,-14.64453 L 34.648438,291.375 C 25.203125,281.92969 20,269.37109 20,256.01562 20,242.66016 25.203125,230.10156 34.648438,220.66016 L 142.71875,112.58984 c 3.90234,-3.90625 3.90234,-10.23828 0,-14.144528 -3.90625,-3.90625 -10.23828,-3.90625 -14.14453,0 L 20.503906,206.51562 C 7.28125,219.73828 0,237.31641 0,256.01562 c 0,18.69922 7.28125,36.27735 20.503906,49.50391 L 206.51562,491.52734 c 13.64454,13.64844 31.57422,20.47266 49.5,20.47266 17.92579,0 35.85547,-6.82422 49.50391,-20.47266 L 491.52734,305.51953 c 27.29688,-27.29687 27.29688,-71.71094 0,-99.00391 z m 0,0" />
      <path
         id="path8511-3-3"
         d="M 48.789062,277.23047 234.80078,463.24219 c 7.64453,7.64453 16.57422,8.78515 21.21484,8.78515 4.64063,0 13.57032,-1.14062 21.21485,-8.78515 L 463.24219,277.23047 c 11.69531,-11.69922 11.69531,-30.73047 0,-42.42969 L 277.23047,48.789062 c -7.64453,-7.644531 -16.57422,-8.785156 -21.21485,-8.785156 -4.64062,0 -13.5664,1.140625 -21.21484,8.785156 L 48.789062,234.80078 c -11.695312,11.69922 -11.695312,30.73438 0,42.42969 z M 62.933594,248.94531 248.94531,62.933594 c 2.54688,-2.550782 5.52344,-2.929688 7.07031,-2.929688 1.54688,0 4.52344,0.378906 7.07032,2.929688 L 449.09766,248.94531 c 3.89843,3.89844 3.89843,10.24219 0,14.14063 L 263.08594,449.09766 c -2.54688,2.55078 -5.52344,2.92968 -7.07031,2.92968 -1.89063,0 -4.65235,-0.50781 -7.07032,-2.92968 L 62.933594,263.08984 c -3.898438,-3.90234 -3.898438,-10.24609 0,-14.14453 z m 0,0" />
      <path
         id="path8517-5-1"
         d="m 159.02734,76.722656 c 1.63282,3.910156 5.63672,6.421875 9.8711,6.152344 4,-0.257812 7.54297,-2.964844 8.83203,-6.761719 1.39062,-4.078125 -0.0742,-8.75 -3.56641,-11.285156 -3.21875,-2.335937 -7.625,-2.546875 -11.03906,-0.503906 -4.19531,2.503906 -5.98047,7.882812 -4.09766,12.398437 z m 0,0" />
    </g>
    <path
       id="path1441-2-2"
       d="m 30.009624,-97.710993 -17.921393,21.987806 h 10.533724 v 4.426085 c 0,7.161731 -4.945883,13.221824 -11.603937,14.820283 V -54.8795 C 3.6540812,-57.632463 1.5308272,-60.649893 -0.80245385,-65.099031 l -3.04270895,-5.802228 -13.8022542,8.977228 c 3.639159,5.743157 4.474342,7.134698 8.9157442,11.523845 -4.8382772,4.918313 -10.6355352,7.658222 -10.6355352,13.640516 l 15.5220452,6.86004 4.36562495,-7.91838 C 3.0112232,-42.335848 2.9104962,-42.95438 11.018018,-42.963947 v 1.833996 c 6.658239,1.635931 11.603937,7.628461 11.603937,14.791351 v 2.62826 H 12.088231 L 30.01272,-0.13503966 47.934114,-23.71086 h -9.78958 v -2.62774 c 0,-9.8585 -4.077974,-16.117371 -10.636043,-22.479769 6.558069,-6.361031 10.636043,-12.620242 10.636043,-22.478733 v -4.426085 h 9.78958 z"
       style="fill:#f9f9f9;stroke-width:0.35277778" />
    <path
       id="path1447-3-0"
       d="m 29.479426,-103.88633 c -1.085903,0 -2.112883,0.50195 -2.781221,1.35909 L 9.3059782,-79.479548 c -0.829574,1.062471 -0.979778,2.505268 -0.38862,3.71657 0.592561,1.2113 1.8217888,1.98024 3.1708728,1.98024 h 6.985635 c -0.28112,4.811278 -3.487791,9.597263 -7.857411,11.682492 -7.7276318,-0.860531 -8.1949388,-2.637211 -11.73675785,-6.955132 -0.261223,-0.26625 -0.93889995,-1.494377 -1.14048595,-1.776637 -1.450102,-2.03177 0.575998,0.85049 -0.855768,-1.194242 -1.117627,-1.596109 -3.316711,-1.984243 -4.91289,-0.866613 l -11.8483592,8.29665 c -1.596205,1.117651 -1.984269,3.317206 -0.866616,4.913397 l 2.000911,2.857188 c 1.466242,1.921571 3.342138,3.867116 5.623957,6.509166 -0.0286,0.02151 -0.04043,0.03047 -0.06874,0.05167 0.02826,0.02117 0.04011,0.03025 0.06874,0.05168 -2.281793,2.642053 -4.157715,4.587603 -5.623957,6.509166 l -2.000911,2.857187 c -1.117653,1.596196 -0.729589,3.795746 0.866616,4.913396 l 11.8483592,8.29665 c 1.596152,1.11763 3.795263,0.7295 4.91289,-0.86661 1.431766,-2.04473 -0.594334,0.83753 0.855768,-1.19424 0.201586,-0.28226 0.87926295,-1.51039 1.14048595,-1.77664 3.54181905,-4.31792 4.00912605,-6.0946 11.73675785,-6.95513 4.30194,1.5038 7.483052,5.41379 7.843441,10.13116 h -6.971665 c -1.349084,0 -2.5783118,0.76896 -3.1708728,1.98024 -0.591158,1.2113 -0.43942,2.65428 0.390181,3.71813 L 26.702333,0.97549034 c 0.668337,0.85713996 1.694973,1.35908996 2.782252,1.35908996 1.085903,0 2.112883,-0.50195 2.781221,-1.35908996 L 49.658034,-22.59981 c 0.8282,-1.06248 0.97962,-2.50544 0.38706,-3.71813 -0.59119,-1.21128 -1.82161,-1.97868 -3.16931,-1.97868 h -6.27301 c -0.20394,-9.00824 -3.46853,-14.822184 -9.305899,-21.580084 5.882849,-6.81165 9.152939,-14.819254 9.310029,-23.906035 h 6.26888 c 1.3477,0 2.57812,-0.76757 3.16931,-1.98024 0.59256,-1.211302 0.44098,-2.654099 -0.3886,-3.71657 L 32.261678,-102.52724 c -0.668337,-0.85714 -1.694974,-1.35909 -2.782252,-1.35909 z m 0,9.264553 10.169918,13.783138 h -2.56418 c -1.94855,0 -3.527954,1.579412 -3.527954,3.527952 v 2.837553 c 0,8.58656 -3.397038,16.081708 -9.563761,22.063768 -0.684874,0.66421 -1.071774,1.577692 -1.071774,2.532663 0,0.953609 0.3869,1.867419 1.071774,2.531629 6.166723,5.983438 9.563761,11.360544 9.563761,19.947104 v 2.62774 c 0,1.94855 1.579404,3.52796 3.527954,3.52796 h 2.56418 L 29.483553,-6.9299697 19.313631,-21.24227 h 3.307292 c 1.94855,0 3.527954,-1.57941 3.527954,-3.52796 v -2.62774 c 0,-9.02651 -6.405298,-16.583263 -14.909165,-18.370973 v -0.0047 c -0.0058,6.4e-5 -0.01164,5.29e-4 -0.01746,5.29e-4 -0.0026,-5.29e-4 -0.0045,-0.0011 -0.0066,-0.0016 v 0.0016 c -7.8428058,0.09548 -14.7386408,5.506494 -17.3916968,10.449494 l -6.5784152,-4.60644 c 1.602184,-2.538882 4.1234252,-4.440603 7.5359682,-7.750948 0.684398,-0.66371 1.071721,-1.576375 1.072303,-2.530594 v -0.0011 -0.0011 -0.0011 c 0,-0.01696 -0.005,-0.03318 -0.0053,-0.05013 0,-0.01691 0.0053,-0.03313 0.0053,-0.05013 v -0.0011 -0.0011 -0.0011 c 0,-0.95422 -0.387905,-1.866876 -1.072303,-2.530594 -3.412543,-3.310342 -5.9337842,-5.212059 -7.5359682,-7.75095 l 6.5784152,-4.606436 c 2.655808,4.948119 9.5631,10.365407 17.4159858,10.450007 v -0.03721 c 8.514222,-2.187176 14.909148,-10.649821 14.909148,-19.679629 v -2.837413 c 0,-1.94854 -1.603851,-3.220231 -3.527954,-3.527952 h -3.308324 z"
       style="stroke-width:0.35277778" />
  </g>
</svg>
