<?xml version="1.0" encoding="UTF-8" standalone="no"?>
<svg
   xmlns:dc="http://purl.org/dc/elements/1.1/"
   xmlns:cc="http://creativecommons.org/ns#"
   xmlns:rdf="http://www.w3.org/1999/02/22-rdf-syntax-ns#"
   xmlns:svg="http://www.w3.org/2000/svg"
   xmlns="http://www.w3.org/2000/svg"
   xmlns:sodipodi="http://sodipodi.sourceforge.net/DTD/sodipodi-0.dtd"
   xmlns:inkscape="http://www.inkscape.org/namespaces/inkscape"
   height="512pt"
   viewBox="0 0 512 512"
   width="512pt"
   version="1.1"
   id="svg8519"
   sodipodi:docname="011-junction-and-join.svg"
   inkscape:version="0.92.4 5da689c313, 2019-01-14">
  <metadata
     id="metadata8525">
    <rdf:RDF>
      <cc:Work
         rdf:about="">
        <dc:format>image/svg+xml</dc:format>
        <dc:type
           rdf:resource="http://purl.org/dc/dcmitype/StillImage" />
        <dc:title />
      </cc:Work>
    </rdf:RDF>
  </metadata>
  <defs
     id="defs8523" />
  <sodipodi:namedview
     pagecolor="#ffffff"
     bordercolor="#666666"
     borderopacity="1"
     objecttolerance="10"
     gridtolerance="10"
     guidetolerance="10"
     inkscape:pageopacity="0"
     inkscape:pageshadow="2"
     inkscape:window-width="2552"
     inkscape:window-height="1379"
     id="namedview8521"
     showgrid="false"
     inkscape:zoom="0.9777961"
     inkscape:cx="-274.98769"
     inkscape:cy="288.85653"
     inkscape:window-x="0"
     inkscape:window-y="57"
     inkscape:window-maximized="0"
     inkscape:current-layer="g9094" />
  <g
     id="g9094">
    <g
       id="g5901"
       transform="translate(-46.977276,30.869623)">
      <g
         transform="translate(46.977268,-30.869631)"
         id="g9107-3-5">
        <path
           style="fill:#ffffff"
           inkscape:connector-curvature="0"
           id="path8503-6-9"
           d="M 213.58594,484.45703 27.574219,298.44531 c -23.433594,-23.43359 -23.433594,-61.42578 0,-84.85937 L 213.58594,27.574219 c 23.43359,-23.433594 61.42578,-23.433594 84.85937,0 L 484.45703,213.58594 c 23.43359,23.43359 23.43359,61.42578 0,84.85937 L 298.44531,484.45703 c -23.43359,23.43359 -61.42578,23.43359 -84.85937,0 z m 0,0" />
        <path
           style="fill:#60a4ff"
           inkscape:connector-curvature="0"
           id="path8505-7-2"
           d="m 256.01562,462.02734 c -3.09375,0 -9.04687,-0.75781 -14.14453,-5.85547 L 55.859375,270.16016 c -7.796875,-7.79688 -7.796875,-20.48828 0,-28.28907 L 241.87109,55.859375 c 5.09766,-5.09375 11.05078,-5.855469 14.14453,-5.855469 3.09375,0 9.04688,0.761719 14.14454,5.859375 L 456.17187,241.87109 c 7.79688,7.80079 7.79688,20.48828 0,28.28907 L 270.16016,456.17187 c -5.09766,5.09375 -11.05079,5.85547 -14.14454,5.85547 z m 0,0" />
        <path
           inkscape:connector-curvature="0"
           id="path8509-5-2"
           d="M 491.52734,206.51562 305.51953,20.503906 C 292.29297,7.28125 274.71484,0 256.01562,0 c -18.69921,0 -36.27734,7.28125 -49.5,20.503906 l -14.19531,14.195313 c -3.90625,3.902343 -3.90625,10.234375 0,14.140625 3.90625,3.90625 10.23828,3.90625 14.14453,0 L 220.66016,34.648438 C 230.10156,25.203125 242.66016,20 256.01562,20 c 13.35547,0 25.91407,5.203125 35.35938,14.648438 L 477.38672,220.66016 c 9.44531,9.4414 14.64453,22 14.64453,35.35546 0,13.35547 -5.19922,25.91407 -14.64453,35.35938 L 291.375,477.38672 c -9.44531,9.44531 -22.00391,14.64453 -35.35938,14.64453 -13.35546,0 -25.91406,-5.19922 -35.35546,-14.64453 L 34.648438,291.375 C 25.203125,281.92969 20,269.37109 20,256.01562 20,242.66016 25.203125,230.10156 34.648438,220.66016 L 142.71875,112.58984 c 3.90234,-3.90625 3.90234,-10.23828 0,-14.144528 -3.90625,-3.90625 -10.23828,-3.90625 -14.14453,0 L 20.503906,206.51562 C 7.28125,219.73828 0,237.31641 0,256.01562 c 0,18.69922 7.28125,36.27735 20.503906,49.50391 L 206.51562,491.52734 c 13.64454,13.64844 31.57422,20.47266 49.5,20.47266 17.92579,0 35.85547,-6.82422 49.50391,-20.47266 L 491.52734,305.51953 c 27.29688,-27.29687 27.29688,-71.71094 0,-99.00391 z m 0,0" />
        <path
           inkscape:connector-curvature="0"
           id="path8511-3-8"
           d="M 48.789062,277.23047 234.80078,463.24219 c 7.64453,7.64453 16.57422,8.78515 21.21484,8.78515 4.64063,0 13.57032,-1.14062 21.21485,-8.78515 L 463.24219,277.23047 c 11.69531,-11.69922 11.69531,-30.73047 0,-42.42969 L 277.23047,48.789062 c -7.64453,-7.644531 -16.57422,-8.785156 -21.21485,-8.785156 -4.64062,0 -13.5664,1.140625 -21.21484,8.785156 L 48.789062,234.80078 c -11.695312,11.69922 -11.695312,30.73438 0,42.42969 z M 62.933594,248.94531 248.94531,62.933594 c 2.54688,-2.550782 5.52344,-2.929688 7.07031,-2.929688 1.54688,0 4.52344,0.378906 7.07032,2.929688 L 449.09766,248.94531 c 3.89843,3.89844 3.89843,10.24219 0,14.14063 L 263.08594,449.09766 c -2.54688,2.55078 -5.52344,2.92968 -7.07031,2.92968 -1.89063,0 -4.65235,-0.50781 -7.07032,-2.92968 L 62.933594,263.08984 c -3.898438,-3.90234 -3.898438,-10.24609 0,-14.14453 z m 0,0" />
        <path
           inkscape:connector-curvature="0"
           id="path8517-5-9"
           d="m 159.02734,76.722656 c 1.63282,3.910156 5.63672,6.421875 9.8711,6.152344 4,-0.257812 7.54297,-2.964844 8.83203,-6.761719 1.39062,-4.078125 -0.0742,-8.75 -3.56641,-11.285156 -3.21875,-2.335937 -7.625,-2.546875 -11.03906,-0.503906 -4.19531,2.503906 -5.98047,7.882812 -4.09766,12.398437 z m 0,0" />
      </g>
      <path
         sodipodi:nodetypes="cscsccssccccccccscc"
         inkscape:connector-curvature="0"
         id="path1441-2-6"
         d="m 235.46888,133.4114 v 32.04639 c 0,27.94533 11.55819,45.68797 30.14799,63.71923 -18.5898,18.03515 -30.14799,35.77683 -30.14799,63.72216 v 25.44874 h 43.9996 v -25.44874 c 0,-23.87109 19.35201,-43.22314 43.22307,-43.22314 h 63.99173 v 29.79052 L 449.0109,228.6658 386.68328,177.8577 v 27.74998 h -2.55764 v 3.06885 h -61.43409 c -23.86956,0.26589 -43.22307,-19.35154 -43.22307,-43.21874 V 133.4114 Z"
         style="fill:#f9f9f9;stroke-width:1" />
      <path
         sodipodi:nodetypes="ssccccsssscscscccscccsccccsssccssscccsssccscccccccscccccccccscccsss"
         inkscape:connector-curvature="0"
         id="path4225"
         d="m 238.49387,124.25905 c -5.52345,0 -10.00051,4.47704 -10.00051,10.00049 v 25.72557 c 0.46207,25.72968 9.72669,49.90212 26.38621,69.19191 -16.53038,19.13715 -25.7796,35.60698 -26.3745,61.09864 h 0.0745 v 25.72557 c 0,5.52345 4.47562,10.00048 9.99901,10.00048 h 40.99949 c 5.52345,0 10.00049,-4.47703 10.00049,-10.00048 v -25.72557 c 1.34275,-17.09538 15.67599,-30.59912 33.1128,-30.59912 h 52.49274 v 19.79002 c 0,3.82416 2.17964,7.30865 5.61321,8.98829 3.43367,1.67579 7.52349,1.24997 10.53519,-1.10157 l 65.33054,-49.30078 c 2.42976,-1.89451 3.85254,-4.80425 3.85254,-7.88233 0,-3.08206 -1.42278,-5.99213 -3.85254,-7.88672 l -65.33196,-49.3081 c -3.01178,-2.35147 -7.1016,-2.78129 -10.53518,-1.10157 -3.43749,1.67579 -5.61331,5.16354 -5.61331,8.9839 v 17.77003 c -0.0199,2.8e-4 -0.038,0 -0.0572,0 v 0.003 0.0468 h -9.2226 c -5.52345,0 -10.00052,4.47556 -10.00052,9.99901 0,5.52342 4.47707,10.0005 10.00052,10.0005 h 9.2226 v 0.017 c 0.67507,-0.0142 1.33656,-0.085 2.01422,-0.085 h 8.04344 c 5.52337,0 10.00049,-4.47705 10.00049,-10.0005 v -7.27001 l 39.07026,28.82812 -39.07026,28.8208 v -9.37939 c 0,-5.52345 -4.47712,-9.99901 -10.00049,-9.99901 h -8.04344 c -0.64854,0 -1.30088,0.0686 -1.9512,0.0952 v -0.0255 H 322.6913 c -28.46287,0 -51.70895,22.47554 -53.0888,50.59865 h -0.0226 v 15.72509 h -21.00002 v -15.72509 h 0.0255 c 0.69366,-22.78264 10.14973,-37.59849 26.97366,-53.92236 1.94137,-1.8828 3.03954,-4.47312 3.03954,-7.17627 0,-2.707 -1.09817,-5.29642 -3.03954,-7.17922 -16.98998,-16.48117 -26.48497,-38.44596 -27.00884,-62.01269 h -0.0762 v -15.72509 h 21.00002 v 15.72509 h 0.0777 c 1.06318,28.69831 24.40964,58.64153 53.03174,58.68751 5.52339,0.0113 10.00666,-4.46046 10.01514,-9.97997 v -0.0199 c 0,-5.51563 -4.46482,-9.98769 -9.98439,-9.99902 -17.60414,-0.0284 -32.04187,-21.31852 -33.09375,-38.68801 h -0.0468 v -25.72778 c 0,-5.52345 -4.47562,-10.0005 -9.99898,-10.0005 z"
         style="stroke-width:1" />
    </g>
  </g>
</svg>
