<?xml version="1.0" encoding="UTF-8" standalone="no"?>
<svg
   xmlns:dc="http://purl.org/dc/elements/1.1/"
   xmlns:cc="http://creativecommons.org/ns#"
   xmlns:rdf="http://www.w3.org/1999/02/22-rdf-syntax-ns#"
   xmlns:svg="http://www.w3.org/2000/svg"
   xmlns="http://www.w3.org/2000/svg"
   xmlns:sodipodi="http://sodipodi.sourceforge.net/DTD/sodipodi-0.dtd"
   xmlns:inkscape="http://www.inkscape.org/namespaces/inkscape"
   height="512pt"
   viewBox="0 0 512 512"
   width="512pt"
   version="1.1"
   id="svg8519"
   sodipodi:docname="011-junction-join.svg"
   inkscape:version="0.92.4 5da689c313, 2019-01-14">
  <metadata
     id="metadata8525">
    <rdf:RDF>
      <cc:Work
         rdf:about="">
        <dc:format>image/svg+xml</dc:format>
        <dc:type
           rdf:resource="http://purl.org/dc/dcmitype/StillImage" />
        <dc:title></dc:title>
      </cc:Work>
    </rdf:RDF>
  </metadata>
  <defs
     id="defs8523" />
  <sodipodi:namedview
     pagecolor="#ffffff"
     bordercolor="#666666"
     borderopacity="1"
     objecttolerance="10"
     gridtolerance="10"
     guidetolerance="10"
     inkscape:pageopacity="0"
     inkscape:pageshadow="2"
     inkscape:window-width="2552"
     inkscape:window-height="1379"
     id="namedview8521"
     showgrid="false"
     inkscape:zoom="0.9777961"
     inkscape:cx="-10.10629"
     inkscape:cy="288.85653"
     inkscape:window-x="0"
     inkscape:window-y="57"
     inkscape:window-maximized="0"
     inkscape:current-layer="g9094" />
  <g
     id="g9094">
    <g
       id="g9107"
       transform="translate(-7.7543944e-6,-7.6293944e-6)">
      <path
         d="M 213.58594,484.45703 27.574219,298.44531 c -23.433594,-23.43359 -23.433594,-61.42578 0,-84.85937 L 213.58594,27.574219 c 23.43359,-23.433594 61.42578,-23.433594 84.85937,0 L 484.45703,213.58594 c 23.43359,23.43359 23.43359,61.42578 0,84.85937 L 298.44531,484.45703 c -23.43359,23.43359 -61.42578,23.43359 -84.85937,0 z m 0,0"
         id="path8503"
         inkscape:connector-curvature="0"
         style="fill:white" />
      <path
         d="m 256.01562,462.02734 c -3.09375,0 -9.04687,-0.75781 -14.14453,-5.85547 L 55.859375,270.16016 c -7.796875,-7.79688 -7.796875,-20.48828 0,-28.28907 L 241.87109,55.859375 c 5.09766,-5.09375 11.05078,-5.855469 14.14453,-5.855469 3.09375,0 9.04688,0.761719 14.14454,5.859375 L 456.17187,241.87109 c 7.79688,7.80079 7.79688,20.48828 0,28.28907 L 270.16016,456.17187 c -5.09766,5.09375 -11.05079,5.85547 -14.14454,5.85547 z m 0,0"
         id="path8505"
         inkscape:connector-curvature="0"
         style="fill:#60a4ff" />
      <path
         d="M 491.52734,206.51562 305.51953,20.503906 C 292.29297,7.28125 274.71484,0 256.01562,0 c -18.69921,0 -36.27734,7.28125 -49.5,20.503906 l -14.19531,14.195313 c -3.90625,3.902343 -3.90625,10.234375 0,14.140625 3.90625,3.90625 10.23828,3.90625 14.14453,0 L 220.66016,34.648438 C 230.10156,25.203125 242.66016,20 256.01562,20 c 13.35547,0 25.91407,5.203125 35.35938,14.648438 L 477.38672,220.66016 c 9.44531,9.4414 14.64453,22 14.64453,35.35546 0,13.35547 -5.19922,25.91407 -14.64453,35.35938 L 291.375,477.38672 c -9.44531,9.44531 -22.00391,14.64453 -35.35938,14.64453 -13.35546,0 -25.91406,-5.19922 -35.35546,-14.64453 L 34.648438,291.375 C 25.203125,281.92969 20,269.37109 20,256.01562 20,242.66016 25.203125,230.10156 34.648438,220.66016 L 142.71875,112.58984 c 3.90234,-3.90625 3.90234,-10.23828 0,-14.144528 -3.90625,-3.90625 -10.23828,-3.90625 -14.14453,0 L 20.503906,206.51562 C 7.28125,219.73828 0,237.31641 0,256.01562 c 0,18.69922 7.28125,36.27735 20.503906,49.50391 L 206.51562,491.52734 c 13.64454,13.64844 31.57422,20.47266 49.5,20.47266 17.92579,0 35.85547,-6.82422 49.50391,-20.47266 L 491.52734,305.51953 c 27.29688,-27.29687 27.29688,-71.71094 0,-99.00391 z m 0,0"
         id="path8509"
         inkscape:connector-curvature="0" />
      <path
         d="M 48.789062,277.23047 234.80078,463.24219 c 7.64453,7.64453 16.57422,8.78515 21.21484,8.78515 4.64063,0 13.57032,-1.14062 21.21485,-8.78515 L 463.24219,277.23047 c 11.69531,-11.69922 11.69531,-30.73047 0,-42.42969 L 277.23047,48.789062 c -7.64453,-7.644531 -16.57422,-8.785156 -21.21485,-8.785156 -4.64062,0 -13.5664,1.140625 -21.21484,8.785156 L 48.789062,234.80078 c -11.695312,11.69922 -11.695312,30.73438 0,42.42969 z M 62.933594,248.94531 248.94531,62.933594 c 2.54688,-2.550782 5.52344,-2.929688 7.07031,-2.929688 1.54688,0 4.52344,0.378906 7.07032,2.929688 L 449.09766,248.94531 c 3.89843,3.89844 3.89843,10.24219 0,14.14063 L 263.08594,449.09766 c -2.54688,2.55078 -5.52344,2.92968 -7.07031,2.92968 -1.89063,0 -4.65235,-0.50781 -7.07032,-2.92968 L 62.933594,263.08984 c -3.898438,-3.90234 -3.898438,-10.24609 0,-14.14453 z m 0,0"
         id="path8511"
         inkscape:connector-curvature="0" />
      <path
         d="m 159.02734,76.722656 c 1.63282,3.910156 5.63672,6.421875 9.8711,6.152344 4,-0.257812 7.54297,-2.964844 8.83203,-6.761719 1.39062,-4.078125 -0.0742,-8.75 -3.56641,-11.285156 -3.21875,-2.335937 -7.625,-2.546875 -11.03906,-0.503906 -4.19531,2.503906 -5.98047,7.882812 -4.09766,12.398437 z m 0,0"
         id="path8517"
         inkscape:connector-curvature="0" />
    </g>
    <g
       id="g9100"
       transform="matrix(-1,0,0,1,528.51779,-15.936508)">
      <path
         style="fill:white"
         inkscape:connector-curvature="0"
         d="m 331.45117,358.64648 27.77344,-28.78906 -52.58203,-50.72265 c -4.07813,-3.9336 -4.07813,-10.46485 0,-14.39454 l 52.58203,-50.72265 -27.77344,-28.79297 -66.25,63.90625 c -1.86328,1.80078 -4.35156,2.80469 -6.9414,2.80469 H 152.80664 v 40.0039 h 105.45313 c 2.58984,0 5.07812,1.00391 6.9414,2.80469 z m 0,0"
         id="path8507" />
      <g
         transform="rotate(90,256.01784,271.93645)"
         id="g9072">
        <path
           inkscape:connector-curvature="0"
           id="path8513"
           d="m 226.01562,269.69141 v 105.45312 c 0,5.52344 4.47657,10 10,10 h 40.00391 c 5.51953,0 10,-4.47656 10,-10 0,-5.52344 -4.48047,-10 -10,-10 h -30.0039 v -95.45312 c 0,-5.20313 -1.99219,-10.13672 -5.60547,-13.88282 l -56.96485,-59.05468 14.39844,-13.88672 43.77734,45.38281 c 3.80469,3.94531 8.91407,6.11719 14.39453,6.11719 h 0.004 c 5.47656,0 10.58984,-2.17188 14.39453,-6.11328 l 43.77735,-45.38672 14.39843,13.88672 -56.96484,59.05468 c -3.61328,3.7461 -5.60547,8.67969 -5.60547,13.88282 v 12.91406 c -0.0664,0.46094 -0.0977,0.92969 -0.0977,1.41015 0,5.41407 4.30079,9.82032 9.67188,9.9961 0.0469,0 0.0937,0 0.13281,0.004 2.71875,0.0664 5.32031,-0.9375 7.26172,-2.82421 1.9375,-1.88282 3.03125,-4.46875 3.03125,-7.17188 v -14.32812 l 63.91016,-66.2461 c 3.83203,-3.97656 3.71875,-10.30859 -0.25782,-14.14062 l -28.78906,-27.77344 c -1.91015,-1.84375 -4.45312,-2.84375 -7.125,-2.80078 -2.65234,0.0469 -5.17578,1.14453 -7.01562,3.05469 l -50.72657,52.58203 -50.71875,-52.58203 c -1.84375,-1.91016 -4.36718,-3.00782 -7.01953,-3.05469 -2.67187,-0.0547 -5.21484,0.95703 -7.125,2.80078 l -28.78906,27.77344 c -3.97656,3.83203 -4.08984,10.16406 -0.25391,14.14062 z m 0,0" />
        <path
           inkscape:connector-curvature="0"
           id="path8515"
           d="m 284.32812,323 c -2.30859,-3.53516 -6.83593,-5.19531 -10.89453,-4.09766 -3.99218,1.07422 -6.9414,4.56641 -7.36328,8.67578 -0.42578,4.14454 1.91406,8.2461 5.67578,10.01563 3.67188,1.72266 8.14063,1.04297 11.10938,-1.73438 3.49219,-3.27343 4.19531,-8.88671 1.47265,-12.85937 z m 0,0" />
      </g>
    </g>
  </g>
</svg>
