<svg xmlns="http://www.w3.org/2000/svg" xmlns:xlink="http://www.w3.org/1999/xlink" version="1.1" id="Capa_1" x="0px" y="0px" viewBox="0 0 512 512" style="enable-background:new 0 0 512 512;" xml:space="preserve" width="512" height="512" class=""><g><polygon style="fill:#FF5A5A;" points="190.443,111.762 95.403,111.762 10.001,197.164 57.521,244.684 267.202,454.366   314.722,501.886 400.125,416.483 400.125,321.444 " data-original="#FF5A5A"></polygon><path style="fill:#FFFFFF" d="M251.064,470.504l158.799-158.799c76.818-76.818,108.578-187.827,84.012-293.651l0,0l0.108,0.108l0,0  C388.16-6.402,277.15,25.357,200.332,102.175L41.534,260.973L251.064,470.504z" data-original="#C8F5FF" class="active-path" data-old_color="#C8F5FF"></path><circle style="fill:#7D9BFF;" cx="298.638" cy="213.303" r="74.004" data-original="#7D9BFF"></circle><polygon style="fill:#FF5A5A;" points="156.16,461.316 50.62,355.777 81.564,301.003 210.933,430.373 " data-original="#FF5A5A"></polygon><path style="fill:#F5C86E;" d="M136.716,441.781L136.716,441.781c-23.569,23.569-52.939,40.503-85.145,49.093l-41.57,11.087  l11.087-41.57c8.59-32.206,25.524-61.576,49.093-85.145l0,0L136.716,441.781z" data-original="#F5C86E"></path><path d="M503.935,17.175c-0.222-2.228-1.188-4.376-2.849-6.051l-0.107-0.108c-1.684-1.699-3.862-2.69-6.124-2.913  C441.698-3.988,385.946-2.461,333.529,12.536c-52.876,15.127-101.38,43.679-140.269,82.568l-6.658,6.658H95.403  c-2.652,0-5.195,1.054-7.071,2.929L2.929,190.093c-3.905,3.905-3.905,10.238,0,14.144l40.599,40.6l-9.066,9.066  c-3.905,3.905-3.905,10.238,0,14.144l34.656,34.656l-27.207,48.156c-2.209,3.911-1.54,8.815,1.636,11.991l12.643,12.643  C35.002,398.945,19.59,427.2,11.426,457.814L0.338,499.383c-0.92,3.448,0.067,7.125,2.591,9.649c1.9,1.899,4.454,2.929,7.072,2.929  c0.858,0,1.725-0.11,2.576-0.338l41.57-11.088c30.613-8.165,58.869-23.576,82.322-44.766l12.617,12.617  c1.926,1.925,4.485,2.929,7.074,2.929c1.682,0,3.376-0.424,4.916-1.293l48.157-27.206l34.757,34.757  c1.953,1.952,4.512,2.929,7.071,2.929c2.559,0,5.118-0.977,7.071-2.929l9.067-9.067l40.447,40.448  c1.876,1.875,4.419,2.929,7.071,2.929s5.195-1.054,7.071-2.929l85.402-85.402c1.875-1.876,2.929-4.419,2.929-7.071v-90.896  l6.81-6.81c38.888-38.889,67.44-87.394,82.568-140.27C514.499,126.087,516.026,70.332,503.935,17.175z M24.144,197.164  l75.402-75.401H166.6l-90.627,90.627c-0.002,0.002-0.005,0.004-0.007,0.007s-0.004,0.005-0.007,0.008l-18.287,18.287L24.144,197.164  z M48.994,481.21l-24.878,6.635l6.635-24.878c7.259-27.217,20.882-52.365,39.598-73.318l51.961,51.961  C101.358,460.328,76.211,473.952,48.994,481.21z M157.857,448.87l-13.328-13.328c-0.23-0.288-0.475-0.567-0.741-0.834  c-0.266-0.266-0.546-0.51-0.833-0.74l-64.96-64.96c-0.23-0.288-0.475-0.567-0.741-0.834c-0.266-0.266-0.546-0.51-0.833-0.74  L63.066,354.08l20.732-36.699l110.758,110.758L157.857,448.87z M390.124,412.34l-75.402,75.402l-33.376-33.377l108.778-108.777  V412.34z M402.792,304.634L260.141,447.284c-0.003,0.003-0.007,0.006-0.01,0.009s-0.006,0.007-0.009,0.01l-9.057,9.057  l-33.058-33.058l-0.001-0.001L88.636,293.932c-0.002-0.002-0.005-0.004-0.007-0.007l-32.952-32.951l27.361-27.361l133.466,133.466  c1.953,1.952,4.512,2.929,7.071,2.929c2.559,0,5.118-0.977,7.071-2.929c3.905-3.905,3.905-10.238,0-14.144L97.181,219.469  l110.223-110.223C280.778,35.87,384.32,5.199,485.51,26.529C506.838,127.719,476.167,231.258,402.792,304.634z" data-original="#000000" class=""></path><path d="M372.639,203.302c-5.522,0-10.001,4.478-10.001,10.001l-0.004,0.634c-0.045,5.523,4.396,10.036,9.919,10.081  c0.028,0,0.056,0.001,0.084,0.001c5.484,0,9.954-4.426,9.999-9.921l0.004-0.795C382.639,207.78,378.162,203.302,372.639,203.302z" data-original="#000000" class=""></path><path d="M367.626,241.94c-4.77-2.787-10.894-1.178-13.68,3.591c-11.449,19.6-32.643,31.775-55.311,31.775  c-35.292,0-64.004-28.712-64.004-64.004s28.712-64.004,64.004-64.004c18.972,0,36.854,8.347,49.062,22.897  c3.551,4.234,9.861,4.782,14.089,1.234c4.231-3.549,4.784-9.857,1.234-14.089c-16.017-19.094-39.484-30.045-64.385-30.045  c-46.32,0-84.005,37.685-84.005,84.005s37.685,84.005,84.005,84.005c29.749,0,57.561-15.974,72.581-41.689  C374.003,250.851,372.394,244.727,367.626,241.94z" data-original="#000000" class=""></path><path d="M247.035,373.473c-2.63,0-5.21,1.061-7.069,2.931c-1.86,1.859-2.931,4.43-2.931,7.069c0,2.63,1.07,5.21,2.931,7.07  c1.859,1.86,4.439,2.93,7.069,2.93c2.641,0,5.21-1.069,7.07-2.93c1.87-1.87,2.93-4.44,2.93-7.07c0-2.63-1.06-5.21-2.93-7.069  C252.246,374.533,249.675,373.473,247.035,373.473z" data-original="#000000" class=""></path></g> </svg>