<svg height="512pt" viewBox="0 0 512.002 512" width="512pt" xmlns="http://www.w3.org/2000/svg"><path d="m213.574219 484.394531-186-186c-23.429688-23.429687-23.429688-61.421875 0-84.851562l186-186c23.429687-23.433594 61.421875-23.433594 84.851562 0l186 185.996093c23.429688 23.433594 23.429688 61.421876 0 84.855469l-186 186c-23.429687 23.433594-61.421875 23.433594-84.851562 0zm0 0" fill="#ff6977"/><path d="m256 461.96875c-3.09375 0-9.042969-.761719-14.144531-5.859375l-185.996094-186c-7.800781-7.796875-7.800781-20.484375 0-28.285156l185.996094-185.996094c5.101562-5.097656 11.050781-5.859375 14.144531-5.859375s9.046875.761719 14.144531 5.859375l185.996094 185.996094c7.800781 7.800781 7.800781 20.488281 0 28.285156l-185.996094 186c-5.101562 5.097656-11.050781 5.859375-14.144531 5.859375zm0 0" fill="#ffea60"/><path d="m307.175781 218.539062-95.339843 41.636719v-51.011719h26.578124l-46.179687-46.847656-46.183594 46.847656h25.785157v76.65625c0 16.734376 17.167968 27.972657 32.507812 21.273438l95.339844-41.636719v69.738281h40v-95.382812c0-16.734375-17.167969-27.972656-32.507813-21.273438zm0 0" fill="#8690a6"/><path d="m491.496094 206.46875-185.996094-186c-27.292969-27.289062-71.703125-27.292969-98.996094 0l-186 186c-13.222656 13.222656-20.503906 30.800781-20.503906 49.5s7.28125 36.277344 20.503906 49.496094l59.484375 59.488281c3.90625 3.902344 10.238281 3.902344 14.144531 0 3.902344-3.90625 3.902344-10.238281 0-14.144531l-59.488281-59.484375c-9.441406-9.445313-14.644531-22-14.644531-35.355469s5.203125-25.914062 14.644531-35.355469l186-186c9.445313-9.445312 22-14.644531 35.355469-14.644531s25.910156 5.199219 35.355469 14.644531l186 186c9.441406 9.441407 14.644531 22 14.644531 35.355469s-5.203125 25.910156-14.644531 35.351562l-186 186.003907c-9.445313 9.441406-22 14.644531-35.355469 14.644531s-25.910156-5.199219-35.355469-14.644531l-62.878906-62.882813c-3.90625-3.902344-10.238281-3.902344-14.140625 0-3.90625 3.90625-3.90625 10.238282 0 14.144532l62.878906 62.878906c13.644532 13.648437 31.570313 20.472656 49.496094 20.472656s35.851562-6.824219 49.5-20.472656l186-186c13.222656-13.21875 20.503906-30.796875 20.503906-49.496094-.003906-18.699219-7.285156-36.277344-20.507812-49.5zm0 0"/><path d="m277.214844 48.753906c-7.648438-7.644531-16.574219-8.785156-21.214844-8.785156s-13.566406 1.140625-21.214844 8.785156l-185.996094 186c-11.699218 11.695313-11.699218 30.730469 0 42.429688l185.996094 185.996094c7.648438 7.648437 16.574219 8.789062 21.214844 8.789062s13.566406-1.144531 21.210938-8.789062l186-186c11.699218-11.695313 11.699218-30.726563 0-42.425782l-59.085938-59.085937c-3.902344-3.902344-10.234375-3.90625-14.140625 0-3.90625 3.902343-3.90625 10.234375 0 14.140625l59.085937 59.085937c3.898438 3.898438 3.898438 10.246094 0 14.144531l-186 186c-2.546874 2.546876-5.523437 2.929688-7.070312 2.929688s-4.523438-.382812-7.070312-2.929688l-186-186c-3.898438-3.898437-3.898438-10.242187 0-14.140624l186-186c2.546874-2.550782 5.523437-2.929688 7.070312-2.929688s4.523438.378906 7.070312 2.929688l63.289063 63.285156c3.902344 3.90625 10.234375 3.90625 14.140625 0 3.90625-3.902344 3.90625-10.234375 0-14.140625zm0 0"/><path d="m299.683594 345.195312h40c5.523437 0 10-4.476562 10-10v-95.382812c0-11.242188-5.613282-21.636719-15.023438-27.792969s-21.179687-7.144531-31.484375-2.644531l-81.339843 35.519531v-25.730469h16.578124c4.03125 0 7.667969-2.421874 9.222657-6.144531 1.558593-3.71875.730469-8.007812-2.101563-10.878906l-46.179687-46.84375c-1.878907-1.90625-4.445313-2.980469-7.125-2.980469-2.675781 0-5.242188 1.074219-7.121094 2.980469l-46.179687 46.84375c-2.832032 2.871094-3.660157 7.160156-2.105469 10.878906 1.558593 3.722657 5.195312 6.144531 9.226562 6.144531h15.78125v66.652344c0 11.246094 5.617188 21.636719 15.027344 27.796875 9.410156 6.15625 21.179687 7.144531 31.484375 2.644531l81.339844-35.519531v54.457031c0 5.523438 4.476562 10 10 10zm-99.339844-47.265624c-4.164062 1.816406-8.730469 1.4375-12.527344-1.054688-3.800781-2.484375-5.980468-6.515625-5.980468-11.058594v-76.65625c0-5.519531-4.476563-10-10-10h-1.882813l22.28125-22.601562 22.28125 22.601562h-2.679687c-5.523438 0-10 4.480469-10 10v51.015625c0 3.371094 1.699218 6.519531 4.523437 8.363281 2.824219 1.851563 6.386719 2.148438 9.480469.800782l95.339844-41.640625c4.160156-1.816407 8.726562-1.433594 12.527343 1.054687 3.800781 2.488282 5.976563 6.519532 5.976563 11.058594v85.382812h-20v-59.738281c0-3.375-1.699219-6.519531-4.523438-8.367187-2.820312-1.847656-6.386718-2.144532-9.476562-.796875zm0 0"/><path d="m357.300781 156.855469c2.332031 3.464843 6.691407 5.167969 10.746094 4.140625 4.007813-1.011719 7.011719-4.445313 7.503906-8.546875.496094-4.132813-1.777343-8.28125-5.507812-10.113281-3.804688-1.863282-8.496094-1.105469-11.492188 1.902343-3.324219 3.335938-3.867187 8.691407-1.25 12.617188zm0 0"/><path d="m128.417969 386.179688c-1.671875-3.921876-5.671875-6.457032-9.949219-6.148438-4.214844.304688-7.84375 3.304688-8.941406 7.382812-1.070313 3.972657.488281 8.316407 3.828125 10.714844 3.371093 2.421875 8.007812 2.457032 11.4375.140625 3.875-2.621093 5.425781-7.769531 3.625-12.089843zm0 0"/></svg>