<?xml version="1.0" encoding="iso-8859-1"?>
<!-- Generator: Adobe Illustrator 19.0.0, SVG Export Plug-In . SVG Version: 6.00 Build 0)  -->
<svg version="1.1" id="Capa_1" xmlns="http://www.w3.org/2000/svg" xmlns:xlink="http://www.w3.org/1999/xlink" x="0px" y="0px"
   viewBox="0 0 512 512" style="enable-background:new 0 0 512 512;" xml:space="preserve">
<path style="fill:#C9F3FF;" d="M454,502H58c-26.51,0-48-21.49-48-48V58c0-26.51,21.49-48,48-48h396c26.51,0,48,21.49,48,48v396
  C502,480.51,480.51,502,454,502z"/>
<circle style="fill:#FF5D5D;" cx="256.89" cy="256.38" r="148.72"/>
<circle style="fill:#EF3C3C;" cx="256.89" cy="256.38" r="26.09"/>
<path style="fill:#72D8FF;" d="M217.082,112.315V83.076c0-10.535,8.541-19.076,19.076-19.076h41.47
  c10.535,0,19.076,8.541,19.076,19.076v29.239C296.704,112.315,217.082,112.315,217.082,112.315z"/>
<circle style="fill:#4DBAF6;" cx="438.57" cy="281.21" r="24.826"/>
<path d="M358,20c2.63,0,5.21-1.07,7.069-2.931C366.93,15.21,368,12.63,368,10s-1.07-5.21-2.931-7.07C363.21,1.069,360.63,0,358,0
  s-5.21,1.069-7.07,2.93S348,7.37,348,10s1.069,5.21,2.93,7.069C352.79,18.93,355.37,20,358,20z"/>
<path d="M454,0h-56c-5.522,0-10,4.478-10,10s4.478,10,10,10h56c20.953,0,38,17.047,38,38v396c0,20.953-17.047,38-38,38H58
  c-20.953,0-38-17.047-38-38V58c0-20.953,17.047-38,38-38h253c5.522,0,10-4.478,10-10s-4.478-10-10-10H58C26.019,0,0,26.019,0,58v396
  c0,31.981,26.019,58,58,58h396c31.981,0,58-26.019,58-58V58C512,26.019,485.981,0,454,0z"/>
<path d="M409.44,300.26c6.227,9.492,16.957,15.778,29.133,15.778c19.203,0,34.826-15.623,34.826-34.826
  c0-15.8-10.58-29.167-25.025-33.412c-1.828-40.382-16.493-79.549-41.767-111.12c-26.1-32.602-62.514-56.022-102.762-66.169
  C299.149,60.752,289.162,54,277.628,54h-41.47c-16.032,0-29.076,13.044-29.076,29.076v22.606
  c-63.191,20.94-108.907,80.58-108.907,150.704c0,87.518,71.201,158.719,158.719,158.719
  C329.197,415.104,390.358,366.505,409.44,300.26z M453.399,281.211c0,8.175-6.651,14.826-14.826,14.826s-14.826-6.651-14.826-14.826
  s6.651-14.825,14.826-14.825S453.399,273.036,453.399,281.211z M428.362,247.916c-4.772,1.467-9.106,3.937-12.766,7.158
  c-0.567-69.555-46.096-128.584-108.892-149.392V92.037C376.279,112.974,424.85,175.091,428.362,247.916z M227.082,83.076
  c0-5.005,4.071-9.076,9.076-9.076h41.47c5.005,0,9.076,4.071,9.076,9.076v17.411c-9.659-1.843-19.622-2.82-29.811-2.82
  c-10.188,0-20.152,0.977-29.812,2.82V83.076H227.082z M118.175,256.386c0-76.49,62.229-138.719,138.719-138.719
  s138.719,62.229,138.719,138.719s-62.229,138.719-138.719,138.719S118.175,332.876,118.175,256.386z"/>
<path d="M292.988,256.386c0-19.902-16.192-36.095-36.095-36.095s-36.095,16.192-36.095,36.095s16.192,36.094,36.095,36.094
  S292.988,276.288,292.988,256.386z M240.799,256.386c0-8.875,7.22-16.095,16.095-16.095c8.875,0,16.095,7.22,16.095,16.095
  c0,8.874-7.22,16.094-16.095,16.094S240.799,265.26,240.799,256.386z"/>
<path d="M64,438.5c-5.522,0-10,4.478-10,10s4.478,10,10,10h92.5c5.522,0,10-4.478,10-10s-4.478-10-10-10H64z"/>
<path d="M186.68,441.43c-1.86,1.86-2.93,4.44-2.93,7.07s1.069,5.21,2.93,7.069c1.86,1.86,4.44,2.931,7.07,2.931
  s5.21-1.07,7.069-2.931c1.86-1.859,2.931-4.439,2.931-7.069s-1.07-5.21-2.931-7.07c-1.859-1.86-4.439-2.93-7.069-2.93
  S188.54,439.569,186.68,441.43z"/>
</svg>
